<?xml version="1.0" encoding="utf-8"?>
<!-- Generator: Adobe Illustrator 26.1.0, SVG Export Plug-In . SVG Version: 6.00 Build 0)  -->
<svg version="1.1" id="Capa_1" xmlns="http://www.w3.org/2000/svg" xmlns:xlink="http://www.w3.org/1999/xlink" x="0px" y="0px"
	 viewBox="0 0 49.4 50.1" style="enable-background:new 0 0 49.4 50.1;" xml:space="preserve">
<style type="text/css">
	.st0{fill:#3C7ABE;}
	.st1{fill:#7BBB54;}
	.st2{fill:#F2902A;}
</style>
<path class="st2" d="M35.4,19.1c0.3,0.2,0.3,0.6,0.1,0.9c-0.1,0.2,0,0.3,0.1,0.4c0.3,0.4,0.7,0.8,0.6,1.5c0,0.2,0.1,0.3,0.2,0.3
	c0.4,0.2,0.7,0.5,0.6,0.9c0,0.3,0.2,0.4,0.3,0.5c0.3,0.1,0.4,0.3,0.4,0.6c0,0.2,0,0.5,0.2,0.7c0.1,0.1,0.1,0.2,0,0.3
	c-0.2,0.2-0.4,0.4-0.4,0.7c0,0.1-0.1,0.1-0.2,0.1c-0.2,0-0.3,0-0.3,0.3c0.1,0.2,0.1,0.4-0.1,0.5c0,0,0,0,0,0.1
	c-0.2,0.3,0.4,0.4,0.2,0.6c-0.2,0.3,0,0.4,0.2,0.5c0.2,0.1,0.3,0.3,0.2,0.5c-0.1,0.1-0.2,0.3-0.4,0.2c-0.2-0.1-0.3,0.1-0.3,0.3
	c0,0.2,0,0.5-0.2,0.6c0,0,0,0,0,0c0,0,0,0,0,0c0,0.2-0.1,0.4-0.2,0.6c-0.3,0.4-0.2,0.9-0.1,1.3c0.1,0.4,0.3,0.7,0.1,1.1
	c-0.1,0.1-0.1,0.3,0,0.4c0.2,0.3,0.3,0.7,0.4,1.1c0.1,0.2,0.2,0.5,0.2,0.6c-0.2,0.3-0.3,0.7-0.4,1.1c-0.2,0.6-0.1,0.8,0.6,0.8
	c0.3,0,0.2,0.1,0.2,0.2c-0.1,0.4,0,0.7,0.2,1.1c0,0,0,0.1,0,0.1c-0.1,0.1,0,0.1,0.1,0.2c0,0,0.1,0.1,0.1,0.1c-0.1,0.5,0,0.6,0.5,0.9
	c0,0,0,0,0,0c0,0.2,0,0.3,0.1,0.5c0.1,0.4,0.4,0.8,0.4,1.1c0,0.7,0.3,1.3,0.5,1.9c0.2,0.7,0.7,1.1,1.2,1.6c0,0.1,0.1,0.1,0.1,0.2
	c0.2,0.3,0.4,0.5,0.7,0.7c0.2,0.2,0.5,0.4,0.9,0.3c0.3-0.1,0.8,0,1.1,0.3c0.4,0.4,0.7,0.7,1.2,1c0.1,0.1,0.2,0.1,0.3,0.2
	c0,0,0,0,0,0c0,0,0,0,0,0.1c0.1,0.2,0.3,0.2,0.5,0.2c0,0,0,0,0,0c0.2,0.2,0.4,0.1,0.7,0.2c0.5,0.1,1,0.3,1.5,0.3
	c0.2,0,0.4,0.3,0.6,0.4c0.1,0,0.1,0.1,0,0.2c-0.1,0.1-0.1,0-0.2,0c-0.5-0.4-1.1-0.4-1.6-0.4c-0.8-0.1-1.6-0.6-2.3-0.9
	c-0.1,0-0.2-0.1-0.2-0.2c-0.2-0.4-0.6-0.6-1-0.7c-0.3-0.1-0.5,0-0.6,0.2c-0.4,0.7-0.9,1.5-1.3,2.2c-0.1,0.1-0.1,0.2-0.3,0.2
	c-0.6-0.1-1.2-0.3-1.7-0.7c-0.2-0.2-0.2-0.5-0.3-0.7c-0.2-0.4-0.3-0.9-0.7-1.2c-0.3-0.4-0.7-0.8-1.1-1.1c-0.1,0-0.1-0.1-0.1-0.2
	c-0.3-0.9-1-1.5-1.9-1.8c-0.1,0-0.2,0-0.2-0.1c-0.1-0.4-0.5-0.6-0.7-1c0-0.1-0.2-0.2-0.2-0.2c-0.7-0.1-0.9-0.7-1.4-1
	c-0.2-0.2-0.4-0.4-0.7-0.5c-0.2,0-0.3-0.1-0.3-0.4c0-0.5-0.2-0.8-0.7-1.1c-0.6-0.4-1.1-0.9-1.8-1.2c-0.7-0.3-1.2-0.8-1.5-1.5
	c-0.2-0.4-0.5-0.7-0.9-0.9c-0.6-0.3-0.9-0.9-1.4-1.3c-0.5-0.4-0.7-0.9-1-1.4c-0.2-0.5-0.6-1-1.1-1.3c-0.1-0.1-0.2-0.1-0.1-0.4
	c0.1-0.3-0.1-0.4-0.2-0.6c-0.1-0.1-0.2-0.3-0.3-0.4c-0.6-0.5-0.8-1.3-1.4-1.9c-0.1-0.1-0.1-0.2-0.1-0.4c-0.1-1-0.7-1.9-1-2.8
	c-0.1-0.2-0.2-0.6-0.6-0.4c0,0-0.2-0.1-0.2-0.1c-1.2-0.8-2.4-1.6-3.6-2.3c-0.2-0.1-0.4-0.4-0.5-0.6c-0.4-0.5-1.1-0.7-1.5-1.1
	c-0.2-0.2-0.4-0.4-0.6-0.7c0.2,0,0.4,0.1,0.5,0.2c0.1,0,0.2,0,0.2-0.1c0-0.1,0-0.2,0-0.2c-0.4-0.1-0.5-0.5-0.9-0.5c0,0,0,0,0,0
	c-0.1-0.2-0.3-0.3-0.5-0.3l0,0c-0.2-0.5-0.6-0.7-1-0.9c-0.6-0.4-1.2-0.8-1.7-1.2c-0.3-0.3-0.4-0.6-0.2-0.9c0-0.1,0.1-0.2,0-0.2
	c-0.1-0.1-0.2-0.1-0.2,0c0,0,0,0,0,0c0,0,0,0,0,0c0,0,0,0,0,0c-0.2,0-0.4,0-0.5-0.2c-0.1-0.1-0.2-0.3-0.4,0c-0.1,0.1-0.1,0-0.1,0
	c-0.5-0.7-1.2-1.3-1.4-2.3c0-0.1,0-0.2-0.1-0.2c-0.3,0-0.5-0.4-0.7-0.5C5.1,12,5,11.9,5,11.7c0-0.3-0.2-0.3-0.3-0.1
	c-0.2,0.1-0.4,0.4-0.5,0.4c-0.3-0.1-0.5-0.2-0.8-0.4c-0.5-0.4-1-0.7-1.5-1.1c-0.3-0.2-0.4-0.7-0.3-1.1c0.2-0.6,0.6-1,1.2-1.4
	c0.4-0.3,0.7-0.7,0.7-1.3c0-0.2,0-0.3,0.2-0.3c0.2,0,0.2,0.2,0.2,0.3c0,0.4,0.2,0.6,0.5,0.8c0.4,0.2,0.7,0.4,1,0.7
	c0.2,0.3,0.4,0.5,0.4,0.9c0,0.4,0.1,0.6,0.5,0.7C6.5,9.8,6.7,9.9,7,9.8c0.2,0,0.2,0.1,0.2,0.2c0,0,0,0,0,0C7,10,7,10.1,7,10.2
	c0.1,0.2,0.3,0.3,0.5,0.2c0.2,0,0.3-0.1,0.5-0.1c0,0,0,0,0,0c0,0.2,0.1,0.2,0.2,0.1c0.1-0.1,0.2-0.2,0.1-0.3l0,0
	c0.1,0.1,0.1,0,0.1-0.1c0-0.1-0.1-0.2-0.2-0.2c-0.2,0-0.4,0.1-0.6,0C8.3,9.1,9,8.6,9.9,8.6c0.5,0,0.9,0,1.4-0.1
	c0.8-0.1,1.6,0,2.4,0.3c0.2,0.1,0.3,0,0.4-0.1C14.7,8.4,15.3,8,16,7.6c0.2-0.1,0.3-0.2,0.3-0.4c0-0.3,0.2-0.5,0.2-0.8
	c0-0.2,0-0.5,0.4-0.5C17,6,17.1,5.8,17,5.7c-0.3-0.3,0-0.8-0.3-1.1c-0.1-0.1,0-0.2,0.1-0.3c0.2-0.2,0.3-0.4,0.3-0.6
	c-0.1-0.4,0-0.6,0.3-0.9c0.3-0.3,0.5-0.7,0.8-0.9c0.3-0.3,0.8-0.4,1.2-0.1c0.2,0.3,0.4,0.5,0.7,0.6c0.3,0.1,0.6,0.1,0.9-0.1
	c0.2-0.2,0.2-0.1,0.3,0.1c0.1,0.1,0.1,0.3,0.2,0.4c0.1,0.1,0.1,0.3,0,0.4c-0.4,0.6-0.4,1.3-0.7,1.9c-0.1,0.2,0,0.5,0.2,0.6
	c0.3,0.1,0.5,0.6,0.9,0.2c0.2-0.2,0.6-0.2,0.9-0.2c0,0,0.1,0,0.1,0c0.2,0.4,0.6,0.2,0.9,0.1c0.5-0.1,1.1-0.1,1.6-0.3
	c0.1-0.1,1,0.6,1,0.8c-0.2,0.8,0.4,1.3,0.6,2c0.1,0.3-0.1,0.5-0.2,0.6c-0.5,0.7-0.2,1,0.4,1.5c0.1,0.1,0.2,0.1,0.2,0.1
	c0.2,0.4,0.5,0.5,0.9,0.5c0.4,0,0.8,0.1,1.1,0.1c0.3,0,0.4,0.2,0.4,0.4c0,0.6-0.2,1.2-0.3,1.8c0,0.2-0.1,0.3-0.1,0.5
	c0.1,0.6-0.1,1.2-0.2,1.7c-0.1,0.2,0,0.5,0.3,0.4c0.4-0.1,0.7,0.1,1,0.2c0.6,0.2,1.1,0.6,1.8,0.4c0.2-0.1,0.5,0.1,0.6,0.3
	c0.2,0.4,0.5,0.5,0.9,0.6c0.2,0,0.3,0.1,0.4,0.2c0.1,0.2,0.3,0.3,0.6,0.2c0.2,0,0.3,0.1,0.3,0.3C35.1,18.5,35.2,18.8,35.4,19.1z
	 M23.1,21.8c0.1,0.1,0.2,0.2,0.3,0.3c0.3,0.3,0.6,0.6,0.9,0.8c1,0.4,2,0.6,2.9-0.1c0.4-0.3,0.7-0.2,0.8,0.3c0.1,0.2,0,0.4-0.2,0.6
	c-0.2,0.2-0.2,0.3,0.1,0.4c0.4,0.1,0.8,0.2,1.2,0.1c0.6-0.1,1.2-0.3,1.8-0.2c0.6,0.1,0.8-0.1,1-0.6c0.2-0.5,0.1-1,0.1-1.5
	c0-0.2-0.2-0.4-0.4-0.5c-0.1,0-0.3-0.1-0.3,0.1c-0.1,0-0.1,0-0.2,0c0,0.1-0.1,0.1-0.1,0.2c-0.1,0.2-0.2,0.3-0.4,0.3
	c-0.2-0.1-0.2-0.3-0.2-0.5c0-0.7-0.4-1.3-0.7-2c0-0.1-0.1-0.3-0.1-0.4c0.1-0.1,0-0.2,0-0.3c0.1-0.2,0.1-0.3-0.1-0.4
	c-0.2-0.1-0.3-0.1-0.5,0.1c-0.2,0.2-0.6,0-0.8,0.2c-0.3-0.4-0.4,0-0.6,0.1c-0.1,0.1-0.2,0.2-0.3,0.2c-0.3,0-0.5,0.2-0.6,0.5
	c-0.1,0.1-0.1,0.2-0.3,0.1c-0.2-0.2-0.4,0-0.6,0.1c-0.4,0.2-0.6,0.6-0.7,1C25.1,21,25,21,24.7,21c-0.5-0.1-0.9-0.2-1.2-0.5
	c-0.2-0.2-0.5-0.1-0.6,0.2C22.8,21.1,22.8,21.5,23.1,21.8z"/>
</svg>
