<?xml version="1.0" encoding="utf-8"?>
<!-- Generator: Adobe Illustrator 26.1.0, SVG Export Plug-In . SVG Version: 6.00 Build 0)  -->
<svg version="1.1" id="Capa_1" xmlns="http://www.w3.org/2000/svg" xmlns:xlink="http://www.w3.org/1999/xlink" x="0px" y="0px"
	 viewBox="0 0 48.6 98.7" style="enable-background:new 0 0 48.6 98.7;" xml:space="preserve">
<style type="text/css">
	.st0{fill:#3C7ABE;}
	.st1{fill:#7BBB54;}
	.st2{fill:#F2902A;}
</style>
<path class="st0" d="M18,11.2c0.1,0.1,0.2,0.1,0.2,0.2c0.1-0.2,0.3-0.1,0.4,0c0.4,0.3,0.8,0.4,1.3,0.3c0.2,0,0.3,0,0.5,0.1
	c0,0,0.1,0,0.1,0c0,0,0,0.1,0.1,0c0.1-0.1,0.1-0.1,0.2,0c0,0,0,0,0,0c0.1,0.1,0.5,0.2,0.1,0.4c-0.1,0.1-0.2,0.2-0.1,0.3
	c0.1,0.1,0.2,0.2,0.4,0.1c0.2-0.1,0.5-0.2,0.7-0.2c0.7-0.1,1.4-0.5,1.7-1.2c0.1-0.3,0.3-0.6,0.7-0.8c0,0.2,0,0.3,0.1,0.4
	c0,0.1,0.1,0.2,0.2,0.2c0.2-0.1,0.3,0.1,0.5,0.2c0.2,0.2,0.5,0.2,0.8,0.1c0.2,0,0.3-0.3,0.2-0.4c0-0.3-0.1-0.6-0.1-0.9
	c0.1-0.4,0.2-0.7,0.6-0.6c-0.1,0.3-0.2,0.5,0.2,0.5C26.9,9.9,27,10,27,10c0.4,0.4,0.9,0.4,1.3,0.1c0.1-0.1,0.2-0.1,0.3-0.1
	c0.5-0.1,0.6-0.4,0.2-0.8c-0.1-0.1-0.1-0.3,0-0.4c0.1-0.1,0.2,0,0.3,0C29.5,9,29.6,9.3,30,9.4c0.5,0.1,1,0.3,1.6,0
	c0.3,0.3,0.6,0.1,0.9-0.1c0.2-0.1,0.3-0.1,0.2-0.4c0-0.1,0-0.2,0.1-0.2c0.1-0.1,0.1-0.1,0.2,0c0.4,0.4,0.8,0.1,1.2,0
	c0.2-0.1,0.3-0.2,0.5,0c0.1,0.1,0.3-0.1,0.2-0.2c-0.1-0.2,0.1-0.2,0.2-0.3c0.4-0.4,0.9-0.5,1.4-0.5c0.1,0,0.3-0.1,0.2-0.2
	c0-0.2,0.1-0.2,0.2-0.3c0.2-0.3,0.4-0.4,0.6-0.7C37.8,6.1,38,6,38.3,6.3c0.1,0.1,0.3,0.1,0.3-0.1c0-0.2,0.1-0.2,0.2-0.3
	c0.2-0.3,0.5-0.6,0.5-0.9c0-0.2,0.1-0.4,0.3-0.5c0.2-0.1,0.4-0.2,0.5-0.4c0.2-0.7,0.3-0.2,0.4,0c0,0,0.1,0,0.1,0c0,0,0,0,0,0
	c0,0.2,0.1,0.1,0.2,0.1c0.5,0.2,0.9-0.1,1.3-0.1c0.3,0,0.6-0.1,0.8-0.1c0.4-0.1,0.8,0.1,1.3,0.3c0.5,0.2,0.9,0.3,1.4,0.1
	c0.3-0.1,0.6-0.1,1,0c-0.3,0.1-0.5,0.3-0.7,0.4c-0.2,0.1-0.4,0.3-0.7,0.2c-0.1-0.1-0.3,0.1-0.2,0.3c0.1,0.1,0,0.2-0.1,0.3
	c-0.2,0.3-0.4,0.6-0.5,1c-0.1,0.3-0.3,0.7-0.5,1c0.1-0.4-0.1-0.7,0-1.1c0.1-0.3-0.2-0.5-0.4-0.6c-0.2-0.1-0.3,0.2-0.3,0.3
	c0.1,0.4-0.2,0.5-0.3,0.7c0,0,0-0.1,0-0.1C43.3,6.5,43,6.4,43,6.3c0.1-0.1,0.2,0.1,0.3-0.1c-0.3,0-0.7-0.2-0.8,0.2
	c-0.1,0.4-0.3,0.8-0.4,1.2c-0.1,0.2-0.2,0.6,0.1,0.6c0.3,0.1,0.3,0.2,0.3,0.4c0,0.3,0.2,0.3,0.4,0.4C43,9.2,43.1,9,43.2,8.8
	c0.1-0.2,0.2-0.5,0.4-0.7c0.1-0.1,0.1-0.3,0.2-0.2C44,8,44,8.1,44,8.2c0,0.4,0,0.9,0.1,1.3c0.4,1.7,0.8,3.3,1.5,4.9
	c0.6,1.2,0.7,2.5,0.2,3.8c-0.4,1.1-1,2.1-1.6,3.1c-0.3,0.6-0.8,1-1.1,1.7c0,0,0,0,0,0c-0.2,0.1-0.4,0.3-0.5,0.6c0,0,0,0,0,0
	c-0.3,0.2-0.6,0.5-0.7,0.9c0,0,0,0,0,0c-0.4,0.4-0.4,1-0.7,1.5c-0.2-0.3-0.5-0.4-0.8-0.6c-0.1-0.3-0.2-0.3-0.4-0.2
	c-0.2,0.1-0.3,0.4-0.5,0.6c-0.1,0.1,0,0.1,0,0.2c0.2,0.1,0.3,0.3,0.6,0.4c0,0.2,0,0.3,0,0.5c0,0.3,0.1,0.2,0.3,0.1
	c0,0,0.1,0,0.1-0.1c0.1-0.2,0.2-0.3,0.3-0.2c0.2,0.1,0,0.2,0,0.3c-0.3,0.9-0.4,1.7-0.3,2.6c0,0.2,0,0.5-0.1,0.7
	c-0.1,0.4-0.2,0.4-0.6,0.2c-0.3-0.2-0.4-0.2-0.5,0.1c-0.1,0.2-0.2,0.3-0.4,0.4c-0.3,0.2-0.7,0.3-1.1,0.3c-0.3,0.4-0.2,0.7,0.2,1.1
	c0.1,0,0.1,0.1,0,0.1c-0.2,0.2-0.1,0.3,0.1,0.4c0.2,0.1,0.4,0.1,0.5-0.1c0.2-0.1,0.2-0.3,0.2-0.5c0.1,0,0.1,0,0.2,0
	c0.1,0.3-0.2,0.6-0.3,0.8c-0.1,0.1-0.2,0.2-0.1,0.4c0,0.1,0.1,0.1,0,0.2c-0.1,0.1-0.2,0.2-0.1,0.3c0.1,0.1,0.2-0.1,0.3-0.1
	c0.1,0,0.1-0.1,0.2-0.2c0.1-0.1,0.2-0.1,0.3-0.1c0.1,0.1,0,0.2,0,0.3c-0.2,0.7-0.5,1.4-0.5,2.1c0,0.9-0.2,1.8-0.3,2.6
	c-0.1,1-0.2,2,0,3c0,0.1,0.1,0.1,0.1,0.2c0.1,0.2-0.1,0.3-0.1,0.5c0.1,0.6,0.2,1.1,0.3,1.7c0.2,0.8,0.5,1.5,0.3,2.4
	c0,0.1,0,0.4,0.2,0.6c0.3,0.2,0.3,0.5,0.3,0.8c-0.1,0.4-0.1,0.8-0.2,1.3c-0.1,0.4-0.1,0.8-0.2,1.3c-0.1-0.3-0.1-0.4-0.2-0.6
	c0-0.3-0.1-0.5-0.4-0.5c0,0,0,0,0,0c-0.1-0.2-0.8-0.4-1-0.3c-0.7,0.3-0.9,1.2-0.3,1.7c0.5,0.4,0.1,1.1,0.5,1.5c0,0,0,0.1,0,0.1
	c-0.3,0.3-0.1,0.8-0.3,1.1l0,0c-0.5,0-0.7,0.3-0.8,0.7c0,0,0,0,0,0c-0.1,0-0.3,0-0.4,0.1c-0.3,0.2-0.5,0.3-0.8,0.1
	c-0.1-0.1-0.2,0-0.2,0.2c0,0,0,0,0,0c-0.2,0-0.3,0.1-0.4,0.2c-0.2,0-0.4,0.2-0.4,0.4c0.1,0.3-0.1,0.6,0,0.8c0,0.1-0.1,0.2,0.1,0.3
	c0.1,0.1,0.2,0,0.2-0.1c0.2-0.1,0.3-0.1,0.4,0c0.2,0.3,0.1,0.7,0.1,1.1c0,0.2-0.2,0.3,0.1,0.5c0.1,0,0.1,0.2,0,0.3
	c-0.1,0.1-0.2,0.3-0.2,0.4c0,0.2-0.1,0.6,0.1,0.7c0.2,0,0.3,0.1,0.4,0.3c0.1,0.1,0.2,0.1,0.3,0.1c0.2-0.1,0.3,0,0.2,0.2
	c0,0.1,0,0.3,0,0.4c0,0.1,0,0.2,0.1,0.3c0.2,0.1,0.2-0.1,0.3-0.2c0,0,0.1,0.1,0.1,0.1c0,0,0,0.1,0,0.1c-0.5,1.8-0.6,3.6-0.4,5.5
	c0,0.1,0,0.2-0.1,0.2c-0.1,0.1-0.2,0-0.3-0.1c-0.1-0.1,0-0.1,0-0.2c0.2-0.6,0.1-0.8-0.4-1.1c-0.2-0.1-0.3-0.1-0.4,0.1
	c-0.1,0.3-0.3,0.3-0.6,0.3c-0.3-0.1-0.2-0.3-0.2-0.5c0-0.1,0.1-0.1,0.2-0.2c0.1-0.3,0.3-0.5,0.4-0.8c0.1-0.2,0.2-0.3,0.4-0.2
	c0,0.3,0.5,0.3,0.6,0.6c-0.1-0.1,0.2-0.3,0-0.4c-0.2-0.1-0.2-0.3-0.3-0.5c0-0.1-0.1-0.3-0.3-0.3c-0.2,0-0.3,0.2-0.3,0.3
	c-0.3,0.1-0.3,0.5-0.5,0.7c-0.2,0.3-0.3,0.6-0.7,0.8C34,64.7,34,64.9,34.2,65c0.6,0.2,0.8,0.7,0.7,1.3c0,0.3-0.1,0.6-0.2,0.9
	c-0.1,0.2-0.4,0.4-0.3,0.6c-0.1,0.3-0.2,0.5-0.5,0.7c-0.3,0.2-0.3,0.3-0.1,0.7c0.1,0.2,0.2,0.5,0.2,0.7c0,0.3,0.2,0.4,0.4,0.4
	c0.2,0,0.4,0,0.5,0.3c0,0.2,0.2,0.1,0.2,0c0.1-0.3,0.2-0.7,0-1.1l0,0c-0.1-0.2,0-0.4,0.1-0.4c0.2-0.1,0.3-0.2,0.3-0.4
	c0.2,0.5,0.4,1,0.6,1.5c0.3,0.6,0.4,1.2,0.5,1.8c0,0.9,0.3,1.7,0.5,2.6c0,0.1,0.1,0.2,0,0.3c-0.1,0.1-0.2,0-0.3-0.1
	c-0.1-0.1-0.2,0-0.3,0c-0.4,0.1-0.6,0.4-0.8,0.7c-0.1,0.3-0.3,0.5-0.7,0.5c-0.2,0-0.4,0.2-0.4,0.4c0,0.5-0.3,0.9-0.4,1.3
	c0,0.2-0.2,0.4-0.5,0.4c-0.3,0.1-0.7,0.2-0.9,0.6c-0.2,0.5-0.4,1.1-0.5,1.7c-0.1,1.5,0.3,3,0.7,4.4c0.2,0.8,0.7,1.4,0.8,2.2
	c0.1,0.8,0.8,1.3,1.1,2c0,0,0,0,0.1,0l0,0c0,0.2,0.1,0.3,0.2,0.4c0,0,0,0,0,0c0.1,0.2,0.3,0.3,0.5,0.3c0.3,0.1,0.5,0.3,0.6,0.6
	c0.4,0.6,0.3,1.3,0.3,1.9c0,0.4-0.4,0.8-0.7,0.8c-0.4,0-0.7,0.1-1,0.2c-0.1,0.1-0.2,0.1-0.4,0.1c-0.3,0-0.5,0-0.5,0.4
	c0,0.1-0.1,0.1-0.2,0.1c-0.2,0.1-0.5,0.1-0.7,0.1c-0.2,0-0.4,0.1-0.4,0.3c0,0.2-0.1,0.4-0.3,0.4c-0.4,0.1-0.8,0-1.1,0.3
	c0,0-0.1,0-0.2,0c-0.4-0.2-1-0.3-1.2-0.7c0,0,0,0,0,0c0-0.2-0.2-0.2-0.3-0.4c-0.2-0.2-0.5-0.3-0.6-0.5c-0.1-0.3-0.3-0.5-0.6-0.6l0,0
	c-0.1-0.3-0.3-0.6-0.5-0.8c-0.1-0.1,0-0.3-0.3-0.3c-0.3,0-0.3-0.2-0.3-0.5c0.2-0.7,0.1-1-0.7-1.2c-0.3-0.1-0.4-0.3-0.3-0.5
	c0.1-0.3,0.1-0.5-0.1-0.7c-0.2-0.3-0.3-0.5,0.1-0.7c0.1-0.1,0.2-0.3,0.3-0.4c0.1-0.2-0.1-0.4-0.2-0.4c-0.2,0-0.5-0.1-0.7,0
	c0,0,0,0,0,0c0-0.3,0.1-0.6,0.1-0.9c0-0.2-0.1-0.5-0.3-0.4c-0.3,0.1-0.5-0.2-0.7-0.2c-0.2,0-0.3-0.1-0.2-0.3c0-0.2,0-0.4-0.3-0.5
	c-0.2-0.1-0.4-0.3-0.7-0.2c-0.4,0.1-0.8,0-0.9-0.5c-0.3-0.4-0.3-0.9-0.4-1.4c-0.1-0.4-0.3-0.6-0.6-0.8l0,0c-0.2-0.3-0.5-0.4-0.7-0.6
	l0,0c-0.3-0.2-0.6-0.3-0.9-0.6c-0.2-0.2-0.5-0.3-0.8-0.4c-0.5-0.1-0.7-0.5-1-1c-0.2-0.5-0.4-1-0.4-1.6c0-0.1-0.1-0.3-0.3-0.3
	c-0.1-0.1-0.1-0.1-0.2-0.2c0-0.6-0.1-1.2,0.1-1.8l0,0c0.2-0.1,0.3-0.3,0.2-0.5c-0.1-0.4,0-0.8,0.1-1.1c0-0.2,0-0.4-0.3-0.4l0,0
	c-0.1-0.3-0.4-0.5-0.3-0.8c0.1-0.5-0.1-0.9-0.4-1.3c-0.1-0.2-0.1-0.3,0-0.4l0,0c0.3-0.2,0.2-0.5,0.3-0.8c0-0.2,0.2-0.5-0.1-0.7
	c-0.6-0.5-1-1.1-1.7-1.3c-0.6-0.1-0.9-0.9-0.8-1.5c0.1-0.3,0.1-0.5,0.2-0.8c0.2-0.9,0.1-1.4-0.6-1.8c-0.4-0.2-0.5-0.6-0.5-1
	c0-0.3-0.1-0.5-0.3-0.7c-0.4-0.2-0.4-0.5-0.4-0.9c0-0.2,0.1-0.5-0.1-0.7l0,0c-0.1-0.4-0.3-0.7-0.7-0.9l0,0c0-0.1-0.1-0.1-0.2-0.2
	l0,0c0-0.2-0.1-0.4-0.1-0.6c0.1-0.3,0.1-0.6,0-0.9c-0.1-0.3-0.2-0.6,0-0.9c0.1-0.2,0-0.6-0.3-0.7c0-0.1-0.1-0.2-0.2-0.2
	c-0.3-0.6-0.6-1.2-0.9-1.8c0,0-0.1,0-0.1,0c0-0.3-0.3-0.2-0.4-0.3c-0.1-0.2-0.3-0.2-0.5-0.3l0,0c0-0.2-0.1-0.4-0.1-0.6
	c0-0.4-0.2-0.6-0.6-0.6l0,0c-0.1-0.2-0.3-0.2-0.5-0.2c-0.4-0.1-0.6,0-0.7,0.4c-0.1,0.2-0.2,0.2-0.4,0.2c-0.2-0.3-0.2-0.7-0.3-1
	c0-0.1,0-0.2-0.1-0.1c-0.2-0.1-0.5-0.2-0.6-0.4c-0.1-0.2,0-0.4-0.2-0.5c0-0.1,0-0.2,0-0.3l0,0C7,50.9,6.9,50.6,7,50.4
	c0.1-0.2,0.2-0.3,0.5-0.2c0.3,0.1,0.5,0,0.5-0.3l0,0c0.3-0.1,0.1-0.5,0.2-0.7l0,0c0.2,0,0.3-0.1,0.4-0.1c0.3,0.1,0.7,0,1-0.1
	c0.2-0.1,0.3-0.1,0.5-0.1c0.6,0.2,0.6,0.1,0.9-0.4l0,0c0.1,0,0.2-0.1,0.2-0.2l0,0c0.1,0,0.1,0,0.1-0.1l0,0c0.1,0,0.1,0,0.1-0.1l0,0
	c0.1,0,0.2-0.1,0.2-0.2l0,0c0.1,0,0.2,0,0.2-0.2c0.2-0.2,0.5-0.4,0.8-0.5c0.3,0,0.6-0.2,0.7-0.5c0,0,0,0,0,0.1c0,0,0,0,0,0
	c0.3-0.4,0.7-0.3,1.1-0.2l0,0c0.1,0.3,0.3,0.2,0.5,0c0.2-0.2,0.3-0.2,0.5-0.1c0.4,0.3,0.4,0.2,0.6-0.2l0,0c0.3,0,0.3-0.2,0.2-0.4
	c-0.1-0.3-0.1-0.7,0-1c0.1-0.3,0-0.5-0.2-0.7c-0.2-0.2-0.5-0.4-0.5-0.7c0-0.6-0.4-0.7-0.7-1l0,0c-0.1-0.2-0.2-0.4,0-0.7
	c0.3-0.3,0.2-1.2-0.1-1.4c-0.4-0.3-0.6-0.7-0.9-1.1c-0.1-0.2-0.1-0.5-0.5-0.5c-0.2-0.4-0.4-0.8-1-0.6c-0.5,0.2-0.8,0.5-1,0.9
	c0,0.1-0.1,0.1-0.1,0.2c-0.1-0.1-0.2,0.1-0.3,0.1c-0.4-0.2-0.9-0.1-1.4-0.2c-0.7-0.2-1.7,0.5-1.7,1.3c0,0.1,0,0.2,0,0.2
	c-0.6,0.7-1,1.5-1.9,1.9c-0.4,0.2-0.5,0.2-0.7-0.2c-0.1-0.2-0.1-0.4-0.3-0.5l0,0c-0.3-0.4-0.7-0.6-1.2-0.7c-0.3,0-0.4-0.2-0.6-0.4
	c-0.1-0.1-0.1-0.3-0.2-0.3l0,0c-0.1-0.2-0.3-0.3-0.5-0.4c-0.2-0.1-0.3-0.3-0.2-0.4c0.2-0.6-0.3-0.9-0.6-1.3c0-0.2,0-0.4,0.1-0.6
	c0.2-0.4,0.4-0.7,0.8-1c0.4-0.2,0.4-0.4,0.2-0.8c-0.1-0.2-0.1-0.4,0-0.6c0.2-0.4,0.4-0.7,0.4-1.2l0,0c0.1-0.1,0.3-0.1,0.3-0.4
	c0,0,0.1,0,0.1-0.1l0,0c0,0,0.1,0,0.1-0.1c0.3-0.1,0.4-0.4,0.3-0.7c-0.1-0.2-0.1-0.4,0-0.6l0,0c0.2-0.1,0.4-0.2,0.3-0.5l0,0
	c0.2,0,0.2-0.3,0.4-0.4c0.1-0.1,0.1-0.1,0.2-0.1c0.1-0.2,0.3,0.1,0.4-0.2l0,0c0.3,0,0.6-0.2,0.9-0.2c0.1,0,0.3-0.1,0.3-0.2l0,0
	c0.1,0,0.1,0,0.1-0.1l0,0c0.1,0,0.1-0.1,0.1-0.1c0-0.5,0.4-0.6,0.7-0.9c0.1,0,0.2-0.1,0.1-0.2l0,0c0.6,0,1.1,0.3,1.6,0.5
	c0.2,0.1,0.4,0.2,0.6,0.1c0.6-0.1,0.9-0.5,1.1-1l0,0c0.3-0.3,0.5-0.6,0.7-1l0,0c0.2-0.3,0.3-0.5,0.5-0.8c0.1-0.3,0-0.6,0.4-0.8
	c0.3-0.1,0.4-0.3,0.1-0.5c-0.1-0.1,0-0.2,0-0.3c0.3-0.5,0.4-1,0.5-1.6c0.1-0.3,0.2-0.7,0.1-1c-0.1-0.3-0.1-0.6,0-0.9
	c0.3-0.9,0.2-2,0.5-2.9c0,0,0-0.1,0-0.1c-0.3-0.6,0-1.2,0-1.8c-0.1-0.5-0.1-0.6-0.6-0.5c-0.5,0.1-1,0.2-1.5-0.1c0,0,0,0,0,0
	c0,0,0,0,0,0c0-0.1-0.2-0.2-0.3-0.2c-0.2-0.4-0.4-0.7-0.2-1.2c0.1-0.3,0.3-0.7,0.2-1c-0.1-0.3,0-0.5,0-0.8c0.2-0.5,0-0.8-0.5-1.1
	c-0.2-0.1-0.4-0.3-0.3-0.5c0.1-0.3,0-0.4-0.1-0.6c-0.1-0.1-0.1-0.3,0-0.4c0.2-0.3,0.5-0.5,0.6-0.9c0-0.1,0.1-0.1,0.2-0.1
	c0.5,0.1,0.8-0.3,1-0.6c0.2-0.5,0.5-0.8,1-1c0.4-0.1,0.7-0.5,1.2-0.4c0.4,0,0.8-0.1,1.2,0.1c0,0,0,0,0,0C16,8.8,16,9.2,16,9.7
	c0,0.2,0,0.4,0.3,0.4c0.2,0,0.3,0.2,0.4,0.4c0,0.1,0,0.2,0.1,0.4c0.1,0.6,0.5,0.7,0.9,0.4C17.7,11.1,17.8,11.2,18,11.2z"/>
<path class="st2" d="M-10.5,107.3c0.3,0.2,0.3,0.6,0.1,0.9c-0.1,0.2,0,0.3,0.1,0.4c0.3,0.4,0.7,0.8,0.6,1.5c0,0.2,0.1,0.3,0.2,0.3
	c0.4,0.2,0.7,0.5,0.6,0.9c0,0.3,0.2,0.4,0.3,0.5c0.3,0.1,0.4,0.3,0.4,0.6c0,0.2,0,0.5,0.2,0.7c0.1,0.1,0.1,0.2,0,0.3
	c-0.2,0.2-0.4,0.4-0.4,0.7c0,0.1-0.1,0.1-0.2,0.1c-0.2,0-0.3,0-0.3,0.3c0.1,0.2,0.1,0.4-0.1,0.5c0,0,0,0,0,0.1
	c-0.2,0.3,0.4,0.4,0.2,0.6c-0.2,0.3,0,0.4,0.2,0.5c0.2,0.1,0.3,0.3,0.2,0.5c-0.1,0.1-0.2,0.3-0.4,0.2c-0.2-0.1-0.3,0.1-0.3,0.3
	c0,0.2,0,0.5-0.2,0.6c0,0,0,0,0,0c0,0,0,0,0,0c0,0.2-0.1,0.4-0.2,0.6c-0.3,0.4-0.2,0.9-0.1,1.3c0.1,0.4,0.3,0.7,0.1,1.1
	c-0.1,0.1-0.1,0.3,0,0.4c0.2,0.3,0.3,0.7,0.4,1.1c0.1,0.2,0.2,0.5,0.2,0.6c-0.2,0.3-0.3,0.7-0.4,1.1c-0.2,0.6-0.1,0.8,0.6,0.8
	c0.3,0,0.2,0.1,0.2,0.2c-0.1,0.4,0,0.7,0.2,1.1c0,0,0,0.1,0,0.1c-0.1,0.1,0,0.1,0.1,0.2c0,0,0.1,0.1,0.1,0.1c-0.1,0.5,0,0.6,0.5,0.9
	c0,0,0,0,0,0c0,0.2,0,0.3,0.1,0.5c0.1,0.4,0.4,0.8,0.4,1.1c0,0.7,0.3,1.3,0.5,1.9c0.2,0.7,0.7,1.1,1.2,1.6c0,0.1,0.1,0.1,0.1,0.2
	c0.2,0.3,0.4,0.5,0.7,0.7c0.2,0.2,0.5,0.4,0.9,0.3c0.3-0.1,0.8,0,1.1,0.3c0.4,0.4,0.7,0.7,1.2,1c0.1,0.1,0.2,0.1,0.3,0.2
	c0,0,0,0,0,0c0,0,0,0,0,0.1c0.1,0.2,0.3,0.2,0.5,0.2c0,0,0,0,0,0c0.2,0.2,0.4,0.1,0.7,0.2c0.5,0.1,1,0.3,1.5,0.3
	c0.2,0,0.4,0.3,0.6,0.4c0.1,0,0.1,0.1,0,0.2c-0.1,0.1-0.1,0-0.2,0c-0.5-0.4-1.1-0.4-1.6-0.4c-0.8-0.1-1.6-0.6-2.3-0.9
	c-0.1,0-0.2-0.1-0.2-0.2c-0.2-0.4-0.6-0.6-1-0.7c-0.3-0.1-0.5,0-0.6,0.2c-0.4,0.7-0.9,1.5-1.3,2.2c-0.1,0.1-0.1,0.2-0.3,0.2
	c-0.6-0.1-1.2-0.3-1.7-0.7c-0.2-0.2-0.2-0.5-0.3-0.7c-0.2-0.4-0.3-0.9-0.7-1.2c-0.3-0.4-0.7-0.8-1.1-1.1c-0.1,0-0.1-0.1-0.1-0.2
	c-0.3-0.9-1-1.5-1.9-1.8c-0.1,0-0.2,0-0.2-0.1c-0.1-0.4-0.5-0.6-0.7-1c0-0.1-0.2-0.2-0.2-0.2c-0.7-0.1-0.9-0.7-1.4-1
	c-0.2-0.2-0.4-0.4-0.7-0.5c-0.2,0-0.3-0.1-0.3-0.4c0-0.5-0.2-0.8-0.7-1.1c-0.6-0.4-1.1-0.9-1.8-1.2c-0.7-0.3-1.2-0.8-1.5-1.5
	c-0.2-0.4-0.5-0.7-0.9-0.9c-0.6-0.3-0.9-0.9-1.4-1.3c-0.5-0.4-0.7-0.9-1-1.4c-0.2-0.5-0.6-1-1.1-1.3c-0.1-0.1-0.2-0.1-0.1-0.4
	c0.1-0.3-0.1-0.4-0.2-0.6c-0.1-0.1-0.2-0.3-0.3-0.4c-0.6-0.5-0.8-1.3-1.4-1.9c-0.1-0.1-0.1-0.2-0.1-0.4c-0.1-1-0.7-1.9-1-2.8
	c-0.1-0.2-0.2-0.6-0.6-0.4c0,0-0.2-0.1-0.2-0.1c-1.2-0.8-2.4-1.6-3.6-2.3c-0.2-0.1-0.4-0.4-0.5-0.6c-0.4-0.5-1.1-0.7-1.5-1.1
	c-0.2-0.2-0.4-0.4-0.6-0.7c0.2,0,0.4,0.1,0.5,0.2c0.1,0,0.2,0,0.2-0.1c0-0.1,0-0.2,0-0.2c-0.4-0.1-0.5-0.5-0.9-0.5c0,0,0,0,0,0
	c-0.1-0.2-0.3-0.3-0.5-0.3l0,0c-0.2-0.5-0.6-0.7-1-0.9c-0.6-0.4-1.2-0.8-1.7-1.2c-0.3-0.3-0.4-0.6-0.2-0.9c0-0.1,0.1-0.2,0-0.2
	c-0.1-0.1-0.2-0.1-0.2,0c0,0,0,0,0,0c0,0,0,0,0,0c0,0,0,0,0,0c-0.2,0-0.4,0-0.5-0.2c-0.1-0.1-0.2-0.3-0.4,0c-0.1,0.1-0.1,0-0.1,0
	c-0.5-0.7-1.2-1.3-1.4-2.3c0-0.1,0-0.2-0.1-0.2c-0.3,0-0.5-0.4-0.7-0.5c-0.2-0.1-0.3-0.2-0.3-0.5c0-0.3-0.2-0.3-0.3-0.1
	c-0.2,0.1-0.4,0.4-0.5,0.4c-0.3-0.1-0.5-0.2-0.8-0.4c-0.5-0.4-1-0.7-1.5-1.1c-0.3-0.2-0.4-0.7-0.3-1.1c0.2-0.6,0.6-1,1.2-1.4
	c0.4-0.3,0.7-0.7,0.7-1.3c0-0.2,0-0.3,0.2-0.3c0.2,0,0.2,0.2,0.2,0.3c0,0.4,0.2,0.6,0.5,0.8c0.4,0.2,0.7,0.4,1,0.7
	c0.2,0.3,0.4,0.5,0.4,0.9c0,0.4,0.1,0.6,0.5,0.7c0.2,0.1,0.5,0.2,0.7,0.1c0.2,0,0.2,0.1,0.2,0.2c0,0,0,0,0,0c-0.2,0-0.2,0.1-0.1,0.2
	c0.1,0.2,0.3,0.3,0.5,0.2c0.2,0,0.3-0.1,0.5-0.1c0,0,0,0,0,0c0,0.2,0.1,0.2,0.2,0.1c0.1-0.1,0.2-0.2,0.1-0.3l0,0
	c0.1,0.1,0.1,0,0.1-0.1c0-0.1-0.1-0.2-0.2-0.2c-0.2,0-0.4,0.1-0.6,0c0.6-0.7,1.2-1.2,2.2-1.1c0.5,0,0.9,0,1.4-0.1
	c0.8-0.1,1.6,0,2.4,0.3c0.2,0.1,0.3,0,0.4-0.1c0.6-0.4,1.3-0.8,1.9-1.1c0.2-0.1,0.3-0.2,0.3-0.4c0-0.3,0.2-0.5,0.2-0.8
	c0-0.2,0-0.5,0.4-0.5c0.1,0,0.2-0.2,0.1-0.3c-0.3-0.3,0-0.8-0.3-1.1c-0.1-0.1,0-0.2,0.1-0.3c0.2-0.2,0.3-0.4,0.3-0.6
	c-0.1-0.4,0-0.6,0.3-0.9c0.3-0.3,0.5-0.7,0.8-0.9c0.3-0.3,0.8-0.4,1.2-0.1c0.2,0.3,0.4,0.5,0.7,0.6c0.3,0.1,0.6,0.1,0.9-0.1
	c0.2-0.2,0.2-0.1,0.3,0.1c0.1,0.1,0.1,0.3,0.2,0.4c0.1,0.1,0.1,0.3,0,0.4c-0.4,0.6-0.4,1.3-0.7,1.9c-0.1,0.2,0,0.5,0.2,0.6
	c0.3,0.1,0.5,0.6,0.9,0.2c0.2-0.2,0.6-0.2,0.9-0.2c0,0,0.1,0,0.1,0c0.2,0.4,0.6,0.2,0.9,0.1c0.5-0.1,1.1-0.1,1.6-0.3
	c0.1-0.1,1,0.6,1,0.8c-0.2,0.8,0.4,1.3,0.6,2c0.1,0.3-0.1,0.5-0.2,0.6c-0.5,0.7-0.2,1,0.4,1.5c0.1,0.1,0.2,0.1,0.2,0.1
	c0.2,0.4,0.5,0.5,0.9,0.5c0.4,0,0.8,0.1,1.1,0.1c0.3,0,0.4,0.2,0.4,0.4c0,0.6-0.2,1.2-0.3,1.8c0,0.2-0.1,0.3-0.1,0.5
	c0.1,0.6-0.1,1.2-0.2,1.7c-0.1,0.2,0,0.5,0.3,0.4c0.4-0.1,0.7,0.1,1,0.2c0.6,0.2,1.1,0.6,1.8,0.4c0.2-0.1,0.5,0.1,0.6,0.3
	c0.2,0.4,0.5,0.5,0.9,0.6c0.2,0,0.3,0.1,0.4,0.2c0.1,0.2,0.3,0.3,0.6,0.2c0.2,0,0.3,0.1,0.3,0.3C-10.8,106.7-10.7,107-10.5,107.3z
	 M-22.8,110c0.1,0.1,0.2,0.2,0.3,0.3c0.3,0.3,0.6,0.6,0.9,0.8c1,0.4,2,0.6,2.9-0.1c0.4-0.3,0.7-0.2,0.8,0.3c0.1,0.2,0,0.4-0.2,0.6
	c-0.2,0.2-0.2,0.3,0.1,0.4c0.4,0.1,0.8,0.2,1.2,0.1c0.6-0.1,1.2-0.3,1.8-0.2c0.6,0.1,0.8-0.1,1-0.6c0.2-0.5,0.1-1,0.1-1.5
	c0-0.2-0.2-0.4-0.4-0.5c-0.1,0-0.3-0.1-0.3,0.1c-0.1,0-0.1,0-0.2,0c0,0.1-0.1,0.1-0.1,0.2c-0.1,0.2-0.2,0.3-0.4,0.3
	c-0.2-0.1-0.2-0.3-0.2-0.5c0-0.7-0.4-1.3-0.7-2c0-0.1-0.1-0.3-0.1-0.4c0.1-0.1,0-0.2,0-0.3c0.1-0.2,0.1-0.3-0.1-0.4
	c-0.2-0.1-0.3-0.1-0.5,0.1c-0.2,0.2-0.6,0-0.8,0.2c-0.3-0.4-0.4,0-0.6,0.1c-0.1,0.1-0.2,0.2-0.3,0.2c-0.3,0-0.5,0.2-0.6,0.5
	c-0.1,0.1-0.1,0.2-0.3,0.1c-0.2-0.2-0.4,0-0.6,0.1c-0.4,0.2-0.6,0.6-0.7,1c-0.1,0.2-0.2,0.2-0.4,0.2c-0.5-0.1-0.9-0.2-1.2-0.5
	c-0.2-0.2-0.5-0.1-0.6,0.2C-23.1,109.3-23.1,109.7-22.8,110z"/>
</svg>
