<?xml version="1.0" encoding="utf-8"?>
<!-- Generator: Adobe Illustrator 26.1.0, SVG Export Plug-In . SVG Version: 6.00 Build 0)  -->
<svg version="1.1" id="Capa_1" xmlns="http://www.w3.org/2000/svg" xmlns:xlink="http://www.w3.org/1999/xlink" x="0px" y="0px"
	 viewBox="0 0 108 108" style="enable-background:new 0 0 108 108;" xml:space="preserve">
<style type="text/css">
	.st0{fill:#3C7ABE;}
	.st1{fill:#7BBB54;}
	.st2{fill:#A7D6F3;}
	.st3{fill:#F2902A;}
</style>
<g>
	<path class="st0" d="M66.6,13.2c0.1,0.1,0.2,0.1,0.2,0.2c0.1-0.2,0.3-0.1,0.4,0c0.4,0.3,0.8,0.4,1.3,0.3c0.2,0,0.3,0,0.5,0.1
		c0,0,0.1,0,0.1,0c0,0,0,0.1,0.1,0c0.1-0.1,0.1-0.1,0.2,0c0,0,0,0,0,0c0.1,0.1,0.5,0.2,0.1,0.4c-0.1,0.1-0.2,0.2-0.1,0.3
		c0.1,0.1,0.2,0.2,0.4,0.1c0.2-0.1,0.5-0.2,0.7-0.2c0.7-0.1,1.4-0.5,1.7-1.2c0.1-0.3,0.3-0.6,0.7-0.8c0,0.2,0,0.3,0.1,0.4
		c0,0.1,0.1,0.2,0.2,0.2c0.2-0.1,0.3,0.1,0.5,0.2c0.2,0.2,0.5,0.2,0.8,0.1c0.2,0,0.3-0.3,0.2-0.4c0-0.3-0.1-0.6-0.1-0.9
		c0.1-0.4,0.2-0.7,0.6-0.6c-0.1,0.3-0.2,0.5,0.2,0.5c0.1,0,0.1,0.1,0.2,0.1c0.4,0.4,0.9,0.4,1.3,0.1c0.1-0.1,0.2-0.1,0.3-0.1
		c0.5-0.1,0.6-0.4,0.2-0.8c-0.1-0.1-0.1-0.3,0-0.4c0.1-0.1,0.2,0,0.3,0c0.3,0.1,0.4,0.4,0.8,0.5c0.5,0.1,1,0.3,1.6,0
		c0.3,0.3,0.6,0.1,0.9-0.1c0.2-0.1,0.3-0.1,0.2-0.4c0-0.1,0-0.2,0.1-0.2c0.1-0.1,0.1-0.1,0.2,0c0.4,0.4,0.8,0.1,1.2,0
		c0.2-0.1,0.3-0.2,0.5,0c0.1,0.1,0.3-0.1,0.2-0.2c-0.1-0.2,0.1-0.2,0.2-0.3c0.4-0.4,0.9-0.5,1.4-0.5c0.1,0,0.3-0.1,0.2-0.2
		c0-0.2,0.1-0.2,0.2-0.3c0.2-0.3,0.4-0.4,0.6-0.7c0.3-0.3,0.5-0.4,0.8-0.1c0.1,0.1,0.3,0.1,0.3-0.1c0-0.2,0.1-0.2,0.2-0.3
		C87.7,7.6,88,7.3,88,7c0-0.2,0.1-0.4,0.3-0.5c0.2-0.1,0.4-0.2,0.5-0.4c0.2-0.7,0.3-0.2,0.4,0c0,0,0.1,0,0.1,0c0,0,0,0,0,0
		c0,0.2,0.1,0.1,0.2,0.1c0.5,0.2,0.9-0.1,1.3-0.1c0.3,0,0.6-0.1,0.8-0.1c0.4-0.1,0.8,0.1,1.3,0.3c0.5,0.2,0.9,0.3,1.4,0.1
		c0.3-0.1,0.6-0.1,1,0c-0.3,0.1-0.5,0.3-0.7,0.4C94.5,6.8,94.3,7,94,6.9c-0.1-0.1-0.3,0.1-0.2,0.3c0.1,0.1,0,0.2-0.1,0.3
		c-0.2,0.3-0.4,0.6-0.5,1c-0.1,0.3-0.3,0.7-0.5,1c0.1-0.4-0.1-0.7,0-1.1c0.1-0.3-0.2-0.5-0.4-0.6C92.1,7.7,92,8,92,8.1
		c0.1,0.4-0.2,0.5-0.3,0.7c0,0,0-0.1,0-0.1c0.2-0.2-0.1-0.2-0.1-0.3c0.1-0.1,0.2,0.1,0.3-0.1c-0.3,0-0.7-0.2-0.8,0.2
		c-0.1,0.4-0.3,0.8-0.4,1.2c-0.1,0.2-0.2,0.6,0.1,0.6c0.3,0.1,0.3,0.2,0.3,0.4c0,0.3,0.2,0.3,0.4,0.4c0.2,0.1,0.3-0.1,0.3-0.3
		c0.1-0.2,0.2-0.5,0.4-0.7c0.1-0.1,0.1-0.3,0.2-0.2c0.2,0.1,0.2,0.2,0.2,0.3c0,0.4,0,0.9,0.1,1.3c0.4,1.7,0.8,3.3,1.5,4.9
		c0.6,1.2,0.7,2.5,0.2,3.8c-0.4,1.1-1,2.1-1.6,3.1c-0.3,0.6-0.8,1-1.1,1.7c0,0,0,0,0,0c-0.2,0.1-0.4,0.3-0.5,0.6c0,0,0,0,0,0
		c-0.3,0.2-0.6,0.5-0.7,0.9c0,0,0,0,0,0c-0.4,0.4-0.4,1-0.7,1.5c-0.2-0.3-0.5-0.4-0.8-0.6c-0.1-0.3-0.2-0.3-0.4-0.2
		c-0.2,0.1-0.3,0.4-0.5,0.6c-0.1,0.1,0,0.1,0,0.2c0.2,0.1,0.3,0.3,0.6,0.4c0,0.2,0,0.3,0,0.5c0,0.3,0.1,0.2,0.3,0.1
		c0,0,0.1,0,0.1-0.1c0.1-0.2,0.2-0.3,0.3-0.2c0.2,0.1,0,0.2,0,0.3c-0.3,0.9-0.4,1.7-0.3,2.6c0,0.2,0,0.5-0.1,0.7
		c-0.1,0.4-0.2,0.4-0.6,0.2c-0.3-0.2-0.4-0.2-0.5,0.1c-0.1,0.2-0.2,0.3-0.4,0.4c-0.3,0.2-0.7,0.3-1.1,0.3c-0.3,0.4-0.2,0.7,0.2,1.1
		c0.1,0,0.1,0.1,0,0.1c-0.2,0.2-0.1,0.3,0.1,0.4c0.2,0.1,0.4,0.1,0.5-0.1c0.2-0.1,0.2-0.3,0.2-0.5c0.1,0,0.1,0,0.2,0
		c0.1,0.3-0.2,0.6-0.3,0.8c-0.1,0.1-0.2,0.2-0.1,0.4c0,0.1,0.1,0.1,0,0.2c-0.1,0.1-0.2,0.2-0.1,0.3c0.1,0.1,0.2-0.1,0.3-0.1
		c0.1,0,0.1-0.1,0.2-0.2c0.1-0.1,0.2-0.1,0.3-0.1c0.1,0.1,0,0.2,0,0.3c-0.2,0.7-0.5,1.4-0.5,2.1c0,0.9-0.2,1.8-0.3,2.6
		c-0.1,1-0.2,2,0,3c0,0.1,0.1,0.1,0.1,0.2c0.1,0.2-0.1,0.3-0.1,0.5c0.1,0.6,0.2,1.1,0.3,1.7c0.2,0.8,0.5,1.5,0.3,2.4
		c0,0.1,0,0.4,0.2,0.6c0.3,0.2,0.3,0.5,0.3,0.8c-0.1,0.4-0.1,0.8-0.2,1.3c-0.1,0.4-0.1,0.8-0.2,1.3c-0.1-0.3-0.1-0.4-0.2-0.6
		c0-0.3-0.1-0.5-0.4-0.5c0,0,0,0,0,0c-0.1-0.2-0.8-0.4-1-0.3c-0.7,0.3-0.9,1.2-0.3,1.7c0.5,0.4,0.1,1.1,0.5,1.5c0,0,0,0.1,0,0.1
		c-0.3,0.3-0.1,0.8-0.3,1.1l0,0c-0.5,0-0.7,0.3-0.8,0.7c0,0,0,0,0,0c-0.1,0-0.3,0-0.4,0.1c-0.3,0.2-0.5,0.3-0.8,0.1
		c-0.1-0.1-0.2,0-0.2,0.2c0,0,0,0,0,0c-0.2,0-0.3,0.1-0.4,0.2c-0.2,0-0.4,0.2-0.4,0.4c0.1,0.3-0.1,0.6,0,0.8c0,0.1-0.1,0.2,0.1,0.3
		c0.1,0.1,0.2,0,0.2-0.1c0.2-0.1,0.3-0.1,0.4,0c0.2,0.3,0.1,0.7,0.1,1.1c0,0.2-0.2,0.3,0.1,0.5c0.1,0,0.1,0.2,0,0.3
		c-0.1,0.1-0.2,0.3-0.2,0.4c0,0.2-0.1,0.6,0.1,0.7c0.2,0,0.3,0.1,0.4,0.3c0.1,0.1,0.2,0.1,0.3,0.1c0.2-0.1,0.3,0,0.2,0.2
		c0,0.1,0,0.3,0,0.4c0,0.1,0,0.2,0.1,0.3c0.2,0.1,0.2-0.1,0.3-0.2c0,0,0.1,0.1,0.1,0.1c0,0,0,0.1,0,0.1c-0.5,1.8-0.6,3.6-0.4,5.5
		c0,0.1,0,0.2-0.1,0.2c-0.1,0.1-0.2,0-0.3-0.1c-0.1-0.1,0-0.1,0-0.2c0.2-0.6,0.1-0.8-0.4-1.1c-0.2-0.1-0.3-0.1-0.4,0.1
		c-0.1,0.3-0.3,0.3-0.6,0.3c-0.3-0.1-0.2-0.3-0.2-0.5c0-0.1,0.1-0.1,0.2-0.2c0.1-0.3,0.3-0.5,0.4-0.8c0.1-0.2,0.2-0.3,0.4-0.2
		c0,0.3,0.5,0.3,0.6,0.6c-0.1-0.1,0.2-0.3,0-0.4c-0.2-0.1-0.2-0.3-0.3-0.5c0-0.1-0.1-0.3-0.3-0.3c-0.2,0-0.3,0.2-0.3,0.3
		c-0.3,0.1-0.3,0.5-0.5,0.7c-0.2,0.3-0.3,0.6-0.7,0.8c-0.1,0.1-0.1,0.2,0.1,0.3c0.6,0.2,0.8,0.7,0.7,1.3c0,0.3-0.1,0.6-0.2,0.9
		c-0.1,0.2-0.4,0.4-0.3,0.6c-0.1,0.3-0.2,0.5-0.5,0.7c-0.3,0.2-0.3,0.3-0.1,0.7c0.1,0.2,0.2,0.5,0.2,0.7c0,0.3,0.2,0.4,0.4,0.4
		c0.2,0,0.4,0,0.5,0.3c0,0.2,0.2,0.1,0.2,0c0.1-0.3,0.2-0.7,0-1.1l0,0c-0.1-0.2,0-0.4,0.1-0.4c0.2-0.1,0.3-0.2,0.3-0.4
		c0.2,0.5,0.4,1,0.6,1.5c0.3,0.6,0.4,1.2,0.5,1.8c0,0.9,0.3,1.7,0.5,2.6c0,0.1,0.1,0.2,0,0.3c-0.1,0.1-0.2,0-0.3-0.1
		c-0.1-0.1-0.2,0-0.3,0c-0.4,0.1-0.6,0.4-0.8,0.7c-0.1,0.3-0.3,0.5-0.7,0.5c-0.2,0-0.4,0.2-0.4,0.4c0,0.5-0.3,0.9-0.4,1.3
		c0,0.2-0.2,0.4-0.5,0.4c-0.3,0.1-0.7,0.2-0.9,0.6c-0.2,0.5-0.4,1.1-0.5,1.7c-0.1,1.5,0.3,3,0.7,4.4c0.2,0.8,0.7,1.4,0.8,2.2
		c0.1,0.8,0.8,1.3,1.1,2c0,0,0,0,0.1,0l0,0c0,0.2,0.1,0.3,0.2,0.4c0,0,0,0,0,0c0.1,0.2,0.3,0.3,0.5,0.3c0.3,0.1,0.5,0.3,0.6,0.6
		c0.4,0.6,0.3,1.3,0.3,1.9c0,0.4-0.4,0.8-0.7,0.8c-0.4,0-0.7,0.1-1,0.2c-0.1,0.1-0.2,0.1-0.4,0.1c-0.3,0-0.5,0-0.5,0.4
		c0,0.1-0.1,0.1-0.2,0.1C82.5,96,82.3,96,82,96c-0.2,0-0.4,0.1-0.4,0.3c0,0.2-0.1,0.4-0.3,0.4c-0.4,0.1-0.8,0-1.1,0.3
		c0,0-0.1,0-0.2,0c-0.4-0.2-1-0.3-1.2-0.7c0,0,0,0,0,0c0-0.2-0.2-0.2-0.3-0.4c-0.2-0.2-0.5-0.3-0.6-0.5c-0.1-0.3-0.3-0.5-0.6-0.6
		l0,0c-0.1-0.3-0.3-0.6-0.5-0.8c-0.1-0.1,0-0.3-0.3-0.3c-0.3,0-0.3-0.2-0.3-0.5c0.2-0.7,0.1-1-0.7-1.2c-0.3-0.1-0.4-0.3-0.3-0.5
		c0.1-0.3,0.1-0.5-0.1-0.7c-0.2-0.3-0.3-0.5,0.1-0.7c0.1-0.1,0.2-0.3,0.3-0.4c0.1-0.2-0.1-0.4-0.2-0.4c-0.2,0-0.5-0.1-0.7,0
		c0,0,0,0,0,0c0-0.3,0.1-0.6,0.1-0.9c0-0.2-0.1-0.5-0.3-0.4c-0.3,0.1-0.5-0.2-0.7-0.2c-0.2,0-0.3-0.1-0.2-0.3c0-0.2,0-0.4-0.3-0.5
		c-0.2-0.1-0.4-0.3-0.7-0.2c-0.4,0.1-0.8,0-0.9-0.5c-0.3-0.4-0.3-0.9-0.4-1.4c-0.1-0.4-0.3-0.6-0.6-0.8l0,0
		c-0.2-0.3-0.5-0.4-0.7-0.6l0,0c-0.3-0.2-0.6-0.3-0.9-0.6c-0.2-0.2-0.5-0.3-0.8-0.4c-0.5-0.1-0.7-0.5-1-1c-0.2-0.5-0.4-1-0.4-1.6
		c0-0.1-0.1-0.3-0.3-0.3c-0.1-0.1-0.1-0.1-0.2-0.2c0-0.6-0.1-1.2,0.1-1.8l0,0c0.2-0.1,0.3-0.3,0.2-0.5c-0.1-0.4,0-0.8,0.1-1.1
		c0-0.2,0-0.4-0.3-0.4l0,0c-0.1-0.3-0.4-0.5-0.3-0.8c0.1-0.5-0.1-0.9-0.4-1.3c-0.1-0.2-0.1-0.3,0-0.4l0,0c0.3-0.2,0.2-0.5,0.3-0.8
		c0-0.2,0.2-0.5-0.1-0.7c-0.6-0.5-1-1.1-1.7-1.3c-0.6-0.1-0.9-0.9-0.8-1.5c0.1-0.3,0.1-0.5,0.2-0.8c0.2-0.9,0.1-1.4-0.6-1.8
		c-0.4-0.2-0.5-0.6-0.5-1c0-0.3-0.1-0.5-0.3-0.7c-0.4-0.2-0.4-0.5-0.4-0.9c0-0.2,0.1-0.5-0.1-0.7l0,0c-0.1-0.4-0.3-0.7-0.7-0.9l0,0
		c0-0.1-0.1-0.1-0.2-0.2l0,0c0-0.2-0.1-0.4-0.1-0.6c0.1-0.3,0.1-0.6,0-0.9c-0.1-0.3-0.2-0.6,0-0.9c0.1-0.2,0-0.6-0.3-0.7
		c0-0.1-0.1-0.2-0.2-0.2c-0.3-0.6-0.6-1.2-0.9-1.8c0,0-0.1,0-0.1,0c0-0.3-0.3-0.2-0.4-0.3c-0.1-0.2-0.3-0.2-0.5-0.3l0,0
		c0-0.2-0.1-0.4-0.1-0.6c0-0.4-0.2-0.6-0.6-0.6l0,0c-0.1-0.2-0.3-0.2-0.5-0.2c-0.4-0.1-0.6,0-0.7,0.4c-0.1,0.2-0.2,0.2-0.4,0.2
		c-0.2-0.3-0.2-0.7-0.3-1c0-0.1,0-0.2-0.1-0.1c-0.2-0.1-0.5-0.2-0.6-0.4c-0.1-0.2,0-0.4-0.2-0.5c0-0.1,0-0.2,0-0.3l0,0
		c0.3-0.1,0.2-0.3,0.3-0.5c0.1-0.2,0.2-0.3,0.5-0.2c0.3,0.1,0.5,0,0.5-0.3l0,0c0.3-0.1,0.1-0.5,0.2-0.7l0,0c0.2,0,0.3-0.1,0.4-0.1
		c0.3,0.1,0.7,0,1-0.1c0.2-0.1,0.3-0.1,0.5-0.1c0.6,0.2,0.6,0.1,0.9-0.4l0,0c0.1,0,0.2-0.1,0.2-0.2l0,0c0.1,0,0.1,0,0.1-0.1l0,0
		c0.1,0,0.1,0,0.1-0.1l0,0c0.1,0,0.2-0.1,0.2-0.2l0,0c0.1,0,0.2,0,0.2-0.2c0.2-0.2,0.5-0.4,0.8-0.5c0.3,0,0.6-0.2,0.7-0.5
		c0,0,0,0,0,0.1c0,0,0,0,0,0c0.3-0.4,0.7-0.3,1.1-0.2l0,0c0.1,0.3,0.3,0.2,0.5,0c0.2-0.2,0.3-0.2,0.5-0.1c0.4,0.3,0.4,0.2,0.6-0.2
		l0,0c0.3,0,0.3-0.2,0.2-0.4c-0.1-0.3-0.1-0.7,0-1c0.1-0.3,0-0.5-0.2-0.7c-0.2-0.2-0.5-0.4-0.5-0.7c0-0.6-0.4-0.7-0.7-1l0,0
		c-0.1-0.2-0.2-0.4,0-0.7c0.3-0.3,0.2-1.2-0.1-1.4c-0.4-0.3-0.6-0.7-0.9-1.1c-0.1-0.2-0.1-0.5-0.5-0.5c-0.2-0.4-0.4-0.8-1-0.6
		c-0.5,0.2-0.8,0.5-1,0.9c0,0.1-0.1,0.1-0.1,0.2c-0.1-0.1-0.2,0.1-0.3,0.1c-0.4-0.2-0.9-0.1-1.4-0.2c-0.7-0.2-1.7,0.5-1.7,1.3
		c0,0.1,0,0.2,0,0.2c-0.6,0.7-1,1.5-1.9,1.9c-0.4,0.2-0.5,0.2-0.7-0.2c-0.1-0.2-0.1-0.4-0.3-0.5l0,0c-0.3-0.4-0.7-0.6-1.2-0.7
		c-0.3,0-0.4-0.2-0.6-0.4c-0.1-0.1-0.1-0.3-0.2-0.3l0,0c-0.1-0.2-0.3-0.3-0.5-0.4c-0.2-0.1-0.3-0.3-0.2-0.4c0.2-0.6-0.3-0.9-0.6-1.3
		c0-0.2,0-0.4,0.1-0.6c0.2-0.4,0.4-0.7,0.8-1c0.4-0.2,0.4-0.4,0.2-0.8c-0.1-0.2-0.1-0.4,0-0.6c0.2-0.4,0.4-0.7,0.4-1.2l0,0
		c0.1-0.1,0.3-0.1,0.3-0.4c0,0,0.1,0,0.1-0.1l0,0c0,0,0.1,0,0.1-0.1c0.3-0.1,0.4-0.4,0.3-0.7c-0.1-0.2-0.1-0.4,0-0.6l0,0
		c0.2-0.1,0.4-0.2,0.3-0.5l0,0c0.2,0,0.2-0.3,0.4-0.4c0.1-0.1,0.1-0.1,0.2-0.1c0.1-0.2,0.3,0.1,0.4-0.2l0,0c0.3,0,0.6-0.2,0.9-0.2
		c0.1,0,0.3-0.1,0.3-0.2l0,0c0.1,0,0.1,0,0.1-0.1l0,0c0.1,0,0.1-0.1,0.1-0.1c0-0.5,0.4-0.6,0.7-0.9c0.1,0,0.2-0.1,0.1-0.2l0,0
		c0.6,0,1.1,0.3,1.6,0.5c0.2,0.1,0.4,0.2,0.6,0.1c0.6-0.1,0.9-0.5,1.1-1l0,0c0.3-0.3,0.5-0.6,0.7-1l0,0c0.2-0.3,0.3-0.5,0.5-0.8
		c0.1-0.3,0-0.6,0.4-0.8c0.3-0.1,0.4-0.3,0.1-0.5c-0.1-0.1,0-0.2,0-0.3c0.3-0.5,0.4-1,0.5-1.6c0.1-0.3,0.2-0.7,0.1-1
		c-0.1-0.3-0.1-0.6,0-0.9c0.3-0.9,0.2-2,0.5-2.9c0,0,0-0.1,0-0.1c-0.3-0.6,0-1.2,0-1.8c-0.1-0.5-0.1-0.6-0.6-0.5
		c-0.5,0.1-1,0.2-1.5-0.1c0,0,0,0,0,0c0,0,0,0,0,0c0-0.1-0.2-0.2-0.3-0.2c-0.2-0.4-0.4-0.7-0.2-1.2c0.1-0.3,0.3-0.7,0.2-1
		c-0.1-0.3,0-0.5,0-0.8c0.2-0.5,0-0.8-0.5-1.1c-0.2-0.1-0.4-0.3-0.3-0.5c0.1-0.3,0-0.4-0.1-0.6c-0.1-0.1-0.1-0.3,0-0.4
		c0.2-0.3,0.5-0.5,0.6-0.9c0-0.1,0.1-0.1,0.2-0.1c0.5,0.1,0.8-0.3,1-0.6c0.2-0.5,0.5-0.8,1-1c0.4-0.1,0.7-0.5,1.2-0.4
		c0.4,0,0.8-0.1,1.2,0.1c0,0,0,0,0,0c0.2,0.4,0.2,0.8,0.2,1.2c0,0.2,0,0.4,0.3,0.4c0.2,0,0.3,0.2,0.4,0.4c0,0.1,0,0.2,0.1,0.4
		c0.1,0.6,0.5,0.7,0.9,0.4C66.3,13.1,66.4,13.2,66.6,13.2z"/>
	<path class="st1" d="M51.3,38.9c-0.3,0.3-0.6,0.6-0.8,1c-0.1,0.2-0.2,0.4-0.1,0.6c0.1,0.4,0.6,0.6,0.5,1c-0.1,0.7,0.4,0.9,0.9,1.2
		c0,0,0,0,0,0c0.2,0.6,0.3,0.7,0.9,0.8c0.1,0,0.2,0.1,0.3,0.1c0.3,0.1,0.6,0.4,0.9,0.5c0,0,0,0,0,0c0,0.2,0.2,0.3,0.3,0.5
		c0.2,0.3,0.3,0.4,0.7,0.2c0.9-0.4,1.3-1.2,1.9-1.9c0,0,0-0.1,0-0.2c0,0,0.1,0,0.1,0c0.1-0.8,0.9-1.3,1.7-1.1
		c0.4,0.1,0.9,0.1,1.3,0.2c0.1,0.1,0.3,0,0.4-0.2c0-0.1,0.1-0.1,0.1-0.2c0.3-0.3,0.8-0.5,1-0.9c0.6-0.2,0.8,0.2,1,0.6
		c0.1,0.1,0.1,0.2,0.2,0.3c0.3,0.4,0.4,0.9,0.8,1.2c0.5,0.4,0.6,1,0.2,1.5c-0.2,0.2-0.2,0.5,0.1,0.7c0,0,0,0,0,0
		c0,0.2,0.2,0.3,0.3,0.4c0.1,0.1,0.2,0.2,0.2,0.3c-0.1,0.3,0.1,0.5,0.2,0.7c0.3,0.4,0.7,0.7,0.3,1.3c0,0,0,0.1,0,0.1
		c-0.1,0.3,0.2,0.7-0.1,1l0,0c-0.1,0-0.1,0-0.1,0c-0.1,0.2-0.2,0.3-0.4,0.1c-0.1-0.1-0.4-0.2-0.5,0c-0.2,0.2-0.3,0.2-0.5,0.1l0,0
		c-0.3-0.4-0.9-0.3-1.1,0.1c-0.1,0.3-0.4,0.4-0.7,0.5c-0.4,0-0.6,0.2-0.8,0.5c-0.1,0.1-0.3,0-0.2,0.2l0,0c-0.1,0-0.2,0-0.2,0.2l0,0
		c-0.1,0-0.1,0-0.1,0.1c0,0,0,0,0,0c-0.1,0-0.1,0-0.1,0.1l0,0c-0.1,0-0.2,0.1-0.2,0.2l0,0c-0.3,0.3-0.6,0.5-1,0.3
		c-0.1-0.1-0.3,0.1-0.4,0.1c-0.3,0.1-0.6,0.2-0.8,0.1c-0.2-0.1-0.4,0-0.5,0.2c0,0,0,0,0,0c-0.4,0.1-0.2,0.4-0.2,0.7c0,0,0,0,0,0
		c-0.2,0-0.3,0.3-0.5,0.2c-0.3-0.2-0.5,0-0.6,0.3c-0.1,0.2-0.1,0.4-0.2,0.6c0,0,0,0,0,0c-0.1,0-0.1,0-0.2,0.1c0,0.1,0,0.2,0.1,0.2
		c0.2,0.1,0.1,0.4,0.2,0.5c0.1,0.2,0.4,0.2,0.6,0.4c0,0.2,0.1,0.3,0.1,0.5c0,0.3,0.1,0.6,0.4,0.7c0.2,0.1,0.3,0.1,0.4-0.2
		c0.2-0.2,0.4-0.4,0.8-0.2c0.1,0.1,0.3,0.2,0.5,0.1c0,0,0,0,0,0c0.3,0.2,0.5,0.5,0.6,0.8c0,0.1,0,0.3,0.2,0.4c0,0,0,0,0,0
		c0.1,0.3,0.3,0.3,0.5,0.3c0.2,0.1,0.4,0,0.4,0.3c0,0.1,0.1,0.2,0.1,0.3c0.2,0.5,0.4,1.1,0.9,1.5c0.1,0.1,0.1,0.1,0.2,0.2
		c0.1,0.2,0.2,0.5,0.1,0.8c-0.1,0.3-0.1,0.6,0,0.8c0.1,0.3,0.1,0.6,0,1c0,0.2,0,0.4,0.2,0.6l0,0c0,0.1,0,0.2,0.2,0.2c0,0,0,0,0,0
		c0.2,0.3,0.4,0.6,0.7,0.9c0,0,0,0,0,0c0,0.3,0,0.5,0,0.8c0,0.3,0,0.6,0.3,0.7c0.3,0.2,0.4,0.5,0.4,0.8c0,0.4,0.1,0.7,0.5,0.9
		c0.1,0,0.2,0.1,0.3,0.2c0.5,0.5,0.3,1.1,0.2,1.7c-0.1,0.5-0.2,0.9-0.1,1.4c0.1,0.5,0.3,0.9,0.9,0.9c0.3,0,0.5,0.2,0.7,0.4
		c0.2,0.1,0.3,0.3,0.5,0.5c0.2,0.2,0.5,0.3,0.4,0.7c-0.1,0.4-0.2,0.7-0.2,1.1c0,0,0,0,0,0c-0.3,0.1-0.2,0.3-0.1,0.5
		c0.2,0.4,0.5,0.8,0.3,1.3c-0.1,0.3,0.1,0.7,0.5,0.8l0,0c0,0.2,0.2,0.2,0.2,0.4c-0.2,0.5,0,1.1-0.2,1.6l0,0
		c-0.3,0.3-0.4,1.4-0.1,1.8c0.1,0.1,0.1,0.1,0.2,0.2c0.1,0.1,0.2,0.2,0.2,0.3c0,0.6,0.2,1.2,0.5,1.7c0.2,0.3,0.1,0.6,0.5,0.8
		c0.6,0.2,1.2,0.5,1.6,0.9c0.1,0.1,0.3,0.2,0.6,0.2c0,0,0,0,0,0c0.1,0.4,0.5,0.4,0.7,0.6l0,0c0.4,0.4,0.6,0.8,0.6,1.4
		c0,0.4,0.1,0.6,0.4,0.8c0.1,0.4,0.5,0.6,0.9,0.5c0.3-0.1,0.5,0.1,0.7,0.2c0.1,0.2,0.2,0.3,0.1,0.6c0,0.1,0.1,0.3,0.2,0.3
		c0.2,0.1,0.4,0.1,0.5,0.2c0.5,0.2,0.5,0.2,0.4,0.7c0,0.2,0,0.4,0.1,0.5l0,0c0,0.3,0.2,0.1,0.3,0.1c0.1,0.1,0.4-0.1,0.5,0.1
		c0,0.2-0.2,0.4-0.3,0.5c0,0-0.1,0-0.1,0.1c-0.3,0.1-0.3,0.3-0.1,0.6c0.2,0.3,0.3,0.6,0.1,0.9c-0.1,0.2,0.1,0.6,0.4,0.6
		c0.6,0.1,0.6,0.1,0.6,0.7c0,0.1,0,0.2-0.1,0.3c0,0.2-0.2,0.5,0.3,0.5c0.1,0,0.2,0.1,0.2,0.2c0.3,0.3,0.4,0.7,0.7,0.9l0,0
		c0.1,0.3-0.1,0.7-0.3,0.6c-0.3-0.1-0.5,0-0.6,0.2c0,0.1-0.1,0.1-0.2,0.1c-0.3-0.3-0.8,0-0.9-0.5c0,0-0.1-0.1-0.1-0.1
		c-0.5,0-1,0-1.5-0.2c-0.2-0.1-0.4-0.1-0.1-0.3c0.2-0.2,0.3-0.5,0.2-0.8c-0.1-0.2-0.2-0.5-0.5-0.5c-0.3,0-0.5-0.1-0.7-0.3
		c-0.1-0.1-0.3-0.2-0.5-0.2c-0.6-0.1-0.8-0.5-0.8-1.1c0-0.2-0.1-0.4-0.3-0.5c-0.2-0.1-0.3,0-0.4,0.2c0,0.1-0.1,0.1-0.2,0.1
		c-0.3,0.1-0.5,0.2-0.7,0.4c-0.2,0.2-0.7,0-0.7-0.3c-0.1-0.5-0.5-0.6-0.9-0.8c-0.3-0.3-0.8-0.4-1-0.7c0-0.3-0.3-0.3-0.4-0.2
		c-0.2,0.1-0.3,0.1-0.5,0c-0.3-0.2-0.6-0.5-1-0.6c-0.1-0.1-0.2-0.2-0.4-0.1c-0.2,0.1-0.4,0.2-0.6,0.3c-1,0.7-2.1,1.2-3.2,1.9
		c-0.2,0.1-0.4,0.1-0.6,0c-0.9-0.4-1.8-0.8-2.7-1.1c-0.8-0.3-1.6-0.6-2.3-0.9c-0.7-0.3-1.4-0.6-2.1-0.9c0,0,0,0,0,0
		c-0.1-0.3,0.1-0.3,0.3-0.3l0,0c0.1,0.2,0.2,0.2,0.4,0.2c0.6-0.1,1,0.2,1.5,0.4c0.1,0,0.1,0.3,0.3,0.2l0,0c0,0.2,0.1,0.2,0.2,0.2
		c0.2,0,0.5-0.1,0.7-0.1c0.2,0,0.3,0,0.4-0.2c0.3,0.4,0.6,0.7,1.1,0.6c0.2,0,0.6-0.2,0.7,0c0.4,0.4,1,0.3,1.4,0.7c0,0,0.1,0,0.1,0
		c0.2-0.2,0.5-0.2,0.7-0.3c0.3-0.2,0.6-0.4,0.9-0.5c0.3-0.1,0.6-0.9,0.4-1.1c-0.3-0.3-0.2-0.6-0.1-1c0.1-0.3,0.2-0.6,0.1-0.8
		c-0.3-0.3-0.3-0.7-0.3-1.1c0-0.2,0-0.5-0.3-0.5l0,0c-0.1-0.5-0.4-0.8-0.9-0.9l0,0c0-0.2-0.2-0.3-0.3-0.4c-0.3-0.5-0.5-0.9-0.4-1.5
		c0-0.1,0.1-0.3-0.1-0.3c-0.2-0.1-0.2,0.1-0.3,0.2c0,0.1-0.1,0.2-0.2,0.2c-0.1,0-0.1-0.1-0.1-0.2c0-0.8-0.6-1.3-1.1-1.7
		c-0.4-0.3-0.5-0.7-0.7-1c-0.1-0.1,0-0.3-0.1-0.4c-0.2-0.1-0.2,0.2-0.3,0.3c0,0-0.1,0-0.1,0c-0.1-0.8-0.1-0.8-0.9-1.6l0,0
		c-0.1-0.2-0.2-0.4-0.4-0.6c-0.3-0.3-0.8-0.5-0.8-1c0-0.1-0.1-0.1-0.2-0.1l0,0c0.1-0.2-0.1-0.3-0.2-0.3c-0.4-0.1-0.6-0.4-0.8-0.8
		c-0.1-0.2-0.2-0.3-0.3-0.3c0-0.3-0.4-0.1-0.4-0.3c0-0.4-0.3-0.5-0.6-0.7c-0.2-0.1-0.3-0.2-0.4-0.4c-0.1-0.2-0.2-0.4-0.5-0.4l0,0
		c0-0.2-0.1-0.3-0.3-0.3l0,0c0-0.1,0-0.1-0.1-0.1l0,0c0-0.1,0-0.1-0.1-0.1l0,0c0-0.1-0.1-0.1-0.2-0.1l0,0c0-0.1,0-0.1-0.1-0.1l0,0
		c0-0.1,0-0.1-0.1-0.1l0,0c-0.2-0.4-0.6-0.4-0.9-0.6l0,0c-0.2-0.2-0.3,0-0.5,0.1c-0.2,0.2-0.3,0.1-0.4-0.1c-0.2-0.3-0.4-0.7-0.5-1
		c-0.1-0.2-0.3-0.5-0.5-0.6c-0.3-0.2-0.7-0.2-0.9-0.7c-0.1-0.2-0.3-0.1-0.4,0c-0.3,0.5-0.5,0.1-0.7-0.1c-0.2-0.2-0.5-0.4-0.8-0.4
		l0,0c-0.1-0.2,0-0.6-0.4-0.5c-0.7,0.1-1.3,0-2,0c-0.2,0-0.5-0.3-0.5-0.5c0.1-0.3,0-0.4-0.1-0.6c0-0.1-0.1-0.1,0-0.2
		c0.3-0.2,0.2-0.5,0.1-0.8c0.4,0.1,0.5,0,0.5-0.3c0-0.1,0.1-0.2,0.2-0.3c0.3-0.2,0.5-0.5,0.1-0.8c-0.1-0.1,0-0.2,0-0.3
		c0-0.4-0.1-0.8-0.6-0.9c-0.2,0-0.2-0.1-0.2-0.3c0-0.5-0.3-0.9-0.7-1.1c-0.2-0.1-0.2-0.2-0.2-0.3c0-0.3-0.1-0.6-0.3-0.9
		c-0.3-0.3-0.5-0.7-0.3-1.1c0.1-0.3,0-0.5-0.3-0.7c-0.1-0.3-0.3-0.6-0.3-0.9c0-0.2-0.2-0.4-0.5-0.4c-0.2,0-0.3,0-0.4-0.2
		c-0.1-0.2-0.4-0.3-0.6-0.3c-0.3-0.1-0.6-0.2-0.8-0.5c-0.2-0.3-0.4-0.5-0.9-0.4c-0.3,0-0.6,0.1-0.8-0.1c-0.5-0.3-1.1-0.6-1.8-0.6
		c-0.2,0-0.2-0.1-0.2-0.2c0.2-0.6,0.2-1.2,0.2-1.9c0-0.7,0.4-1.4,0.3-2.1c0-0.3-0.2-0.7-0.5-0.6c-0.2,0-0.4,0-0.6,0
		c-0.5-0.1-1.2,0.1-1.5-0.6c0,0-0.1,0-0.1,0c-0.6-0.4-0.6-0.6-0.3-1.2c0.1-0.2,0.4-0.5,0.2-0.8c-0.1-0.3-0.3-0.6-0.4-0.9
		c-0.1-0.2-0.3-0.5-0.2-0.7c0.1-0.3,0-0.5-0.2-0.7c-0.2-0.2-0.5-0.3-0.7-0.5c0,0-0.1,0-0.2,0c-0.6,0.2-1.4,0.2-2,0.5
		c-0.1,0-0.1,0-0.2,0c-0.4-0.5-1-0.2-1.3,0c-0.4,0.2-0.5-0.1-0.8-0.2c-0.2-0.1-0.2-0.4-0.2-0.5c0.3-0.6,0.4-1.3,0.7-1.9
		c0.1-0.2,0.1-0.4-0.1-0.6c-0.2-0.2-0.3-0.4-0.3-0.7c0.2-0.7,0-1.3-0.6-1.6c-0.2-0.1-0.2-0.3,0-0.4c0.4-0.4,0.5-0.8,0.2-1.3
		c-0.4-0.5-0.3-1.1-0.3-1.7c0-0.3,0.4-0.6,0-0.9c0,0,0-0.1,0-0.1c0.1-0.3,0-0.4-0.3-0.4c-0.2,0-0.3-0.1-0.2-0.3c0-0.1,0-0.2,0-0.3
		c0.2-0.6,0.4-1.1,0.1-1.7c-0.1-0.1,0-0.4,0.1-0.4c0.3-0.2,0.6-0.4,0.8-0.4c0.7-0.1,1.5-0.2,2.2-0.1c0.3,0,0.6,0,0.8-0.3
		c0.3-0.3,0.5-0.3,0.8,0c0.3,0.3,0.6,0.5,1,0.4c0,0,0.8,0.2,0.8,0.2c0.1,0,0.1,0,0.2,0.1c0.9,0.4,1.8,0,2.6-0.2
		c0.3-0.1,0.6-0.3,0.6-0.7c0-0.2,0.1-0.4,0.2-0.6c0-0.2,0.1-0.3,0.3-0.2c0.3,0,0.5-0.2,0.6-0.4c0.2-0.4,0.5-0.8,0.7-1.3c0,0,0,0,0,0
		c0.5-0.2,0.7-0.6,0.9-1c0.1-0.3,0.2-0.4,0.5-0.5c0.3-0.1,0.4-0.3,0.4-0.6c0-0.2,0.1-0.3,0.3-0.3c0.3-0.1,0.6-0.2,1-0.3
		c0.2-0.1,0.4-0.2,0.5,0c0.1,0.2,0.4,0.3,0.1,0.6c-0.3,0.3-0.2,0.7,0.1,0.9c0.4,0.3,0.8,0.5,1.2,0.8c0.2,0.2,0.5,0.3,0.7,0.6
		c0.1,0.2,0.3,0.2,0.4,0c0.2-0.3,0.4-0.2,0.6,0c0.2,0.2,0.3,0.4,0.3,0.6c0,0.5,0.3,0.7,0.7,0.5c0.2-0.1,0.3,0,0.5,0.1
		c0.2,0.2,0.4,0.1,0.6-0.1c0.2-0.2,0.1-0.4-0.1-0.5c-0.2-0.2-0.2-0.5-0.1-0.7c0-0.1,0.1-0.3,0.1-0.4c0.1-0.5,0.3-0.7,0.8-0.7
		c0.3,0,0.6-0.1,0.7-0.3c0.2-0.2,0.4-0.3,0.6-0.3c0.4,0,0.7-0.1,0.8-0.5c0.2-0.4,0.6-0.5,1-0.3c0.2,0.1,0.4,0.1,0.5,0
		c0.3-0.4,0.8-0.6,1-1c0,0,0,0,0,0c0.7-0.1,1.1-0.4,1.2-1.2c0-0.1,0-0.1,0.1-0.1c0.1-0.3,0.3-0.5,0.2-0.8c-0.1-0.2,0.1-0.3,0.2-0.3
		c0.4,0,0.6-0.3,0.8-0.5c0.1-0.2,0.3-0.4,0.5-0.3c0.6,0,1.2-0.1,1.8-0.1c0.3,0,0.6,0,0.8-0.2c0.6-0.7,0.5-0.9-0.2-1.4
		c0,0-0.1,0-0.1-0.1c-0.3-0.3-0.3-0.7,0-0.9c0.2-0.1,0.2-0.3,0.2-0.4c0-0.3,0.2-0.5,0.3-0.8c0.3-0.5,0.7-1.1,0.5-1.7
		c0-0.1-0.2-0.3,0-0.4c0.2-0.1,0.4-0.1,0.5,0.1c0.3,0.5,0.6,0.5,1,0c0.2-0.2,0.4-0.5,0.7-0.7c0.1-0.1,0.2-0.2,0.3-0.1
		c0.1,0.1,0.2,0.2,0.2,0.4c0.1,0.4-0.2,0.8-0.1,1c0.2,0.5,0,0.9-0.2,1.4c-0.1,0.5,0,0.9,0.4,1.2c0.1,0,0.2,0.1,0.3,0.2
		c0,0.1,0.1,0.1,0.2,0.2c0.5,0.2,0.9,0,1.4-0.1c0.3-0.1,0.4,0,0.4,0.3c0,0.9-0.1,1.8-0.2,2.8c-0.1,0.7-0.3,1.4-0.4,2.1
		c0,0.2-0.3,0.4-0.1,0.6c0.3,0.5,0,0.9-0.1,1.4c-0.1,0.5-0.4,1-0.5,1.6c0,0.4,0,0.6-0.4,0.8c-0.1,0.1-0.1,0.3-0.1,0.5
		c-0.1,0.4-0.5,0.6-0.4,1c0,0,0,0,0,0c-0.3,0.3-0.5,0.6-0.7,1l0,0c-0.2,0-0.2,0.1-0.3,0.2c-0.4,0.6-0.9,0.8-1.2,0.6
		C57.8,32,57.3,32,57,31.7c-0.2-0.1-0.5-0.3-0.7,0c0,0,0,0,0,0c-0.5,0.2-0.9,0.5-1,1.1l0,0c-0.1,0-0.1,0-0.1,0.1c0,0,0,0,0,0
		c-0.1,0-0.3,0.1-0.4,0.1c-0.3,0-0.6,0-0.8,0.3c0,0,0,0,0,0c-0.1,0-0.3,0-0.4,0.2c-0.1,0-0.2,0.1-0.2,0.1c-0.1,0.1-0.3,0.2-0.4,0.4
		l0,0c-0.2,0.1-0.3,0.3-0.3,0.5c0,0,0,0,0,0c-0.3,0.1-0.2,0.3-0.1,0.5c0.1,0.3,0,0.5-0.1,0.7c0,0-0.1,0-0.1,0.1c0,0,0,0,0,0
		c0,0-0.1,0-0.1,0.1c-0.1,0.1-0.3,0.1-0.3,0.4c0,0,0,0,0,0c-0.1,0-0.1,0-0.1,0.1c-0.1,0.4-0.3,0.8-0.5,1.2c-0.1,0.1,0,0.3,0.1,0.4
		C51.6,38.3,51.5,38.6,51.3,38.9z"/>
	<path class="st2" d="M53.4,87.9c-0.9-0.9-2.1-1-3.3-1.1c0,0,0,0,0,0c-0.1-0.1-0.3-0.2-0.5-0.2c0,0,0,0,0-0.1c0,0,0,0,0,0
		c-0.1-0.1-0.2-0.1-0.3-0.2c0-0.4-0.4-0.4-0.6-0.6c-0.3-0.4-0.7-0.8-1.3-0.8c-0.7,0-1.2-0.3-1.6-0.9C45.8,84,45.7,84,45.6,84
		c0-0.1-0.1-0.1-0.1-0.2c-0.1-0.3-0.3-0.5-0.5-0.7c-0.3-0.3-0.5-0.8-0.7-1.2c-0.3-0.6-0.3-1.3-0.5-1.9c-0.1-0.4-0.2-0.9-0.5-1.2l0,0
		c-0.2-0.3-0.6-0.4-0.5-0.9c0,0-0.1-0.1-0.1-0.1c0-0.1,0-0.1-0.1-0.2c0,0,0-0.1,0-0.1c0-0.4,0-0.8,0-1.2c0-0.1-0.1-0.3-0.2-0.2
		c-0.2,0.2-0.4-0.2-0.6,0c-0.1,0.1-0.2-0.1-0.1-0.2c0.2-0.3,0.1-0.8,0.3-1c0.3-0.3,0.2-0.6,0.1-1c-0.1-0.3-0.3-0.5-0.3-0.8
		c-0.1-0.3-0.4-0.6,0-1c0,0,0.1-0.3,0-0.4c-0.4-0.5-0.3-1.2-0.3-1.8c0.1-0.2,0.2-0.4,0.2-0.6c0.4-0.1,0.3-0.4,0.3-0.6
		c0-0.1-0.1-0.3,0.1-0.2c0.3,0.1,0.5-0.1,0.6-0.4c0.1-0.1,0.2-0.3,0.3-0.2c0.5,0.2,0.9,0.1,1.4,0.1c0.3,0,0.5-0.1,0.7,0.3
		c0,0,0.1,0,0.1,0c0,0,0,0,0,0c0.1,0.2,0.4,0.2,0.6,0.4c0.6,0.6,0.6,0.6,1.2,0.1c0,0,0,0,0.1,0c0,0.3,0.3,0.3,0.5,0.4
		c0.3,0.2,0.7,0.3,0.9,0.7c0.2,0.4,0.4,0.8,0.6,1.1c0.2,0.3,0.3,0.3,0.5,0.1c0.1-0.1,0.2-0.1,0.4-0.2c0,0,0,0,0,0
		c0.2,0.3,0.6,0.3,0.9,0.6c0,0,0,0,0,0c0,0.1,0,0.1,0.1,0.1l0,0c0,0.1,0,0.1,0.1,0.1c0,0,0,0,0,0c0,0.1,0.1,0.1,0.2,0.1l0,0
		c0,0.1,0,0.1,0.1,0.1c0,0,0,0,0,0c0,0.1,0,0.1,0.1,0.1c0,0,0,0,0,0c0.1,0.2,0.1,0.3,0.3,0.3c0,0,0,0,0,0c0.4,0.4,0.6,0.9,1.1,1.1
		c0,0,0.1,0.1,0.1,0.1c0,0.4,0.3,0.5,0.6,0.6c0.1,0.1,0.3,0.2,0.3,0.3c0,0.2,0.2,0.3,0.1,0.5c0,0.1,0.1,0.2,0.2,0.2
		c0.3-0.1,0.5,0.2,0.7,0.3c0,0,0,0,0,0c0.2,0.2,0,0.5,0.2,0.7c0.3,0.4,0.8,0.6,1.1,1c0,0,0.1,0,0.1,0c0,0,0,0,0,0
		c0,0.3,0.2,0.5,0.4,0.7c0.2,0.2,0.3,0.4,0.3,0.7c0,0.2,0,0.4,0.2,0.4c0.2,0.1,0.2-0.2,0.3-0.3c0.1,0.5,0.3,0.9,0.6,1.2
		c0.6,0.5,1.2,1,1.2,1.9c0,0.2,0.1,0.3,0.3,0.2c0.4-0.2,0.3,0,0.3,0.2c0.2,0.5,0.3,1.1,0.9,1.4c0,0,0,0,0,0c0.4,0.2,0.6,0.5,0.9,0.9
		l0,0c0.2,0.2,0.2,0.5,0.2,0.8c0,0.2,0,0.5,0.2,0.7c0.3,0.3,0.2,0.6,0.1,1c-0.1,0.4-0.2,0.7,0.1,1.1c0.1,0.1,0.1,0.3,0,0.5
		c-0.1,0.4-0.4,0.5-0.7,0.6c-0.5,0.2-0.9,0.9-1.6,0.3c0,0-0.1,0-0.2,0c-0.2,0-0.3-0.1-0.5-0.1c-0.3-0.2-0.6-0.4-1-0.3
		c-0.4,0.1-1,0.1-1.2-0.5c0-0.1-0.2-0.1-0.2,0c-0.4,0.4-0.8,0.2-1.2,0.3c0,0,0,0,0,0c0-0.1-0.1-0.2-0.2-0.2c-0.5-0.1-1-0.8-1.7-0.4
		C53.7,88,53.5,88,53.4,87.9L53.4,87.9z M59.3,87.2c0.1,0.1,0.1,0.2,0.2,0.3c0.1,0.1,0.1,0.3,0.3,0.3c0.1,0,0.2-0.1,0.2-0.1
		c-0.2-0.2,0.2-0.6-0.2-0.8c-0.2-0.2-0.4-0.4-0.7-0.2c-0.2,0.1-0.3,0-0.4-0.1c-0.1-0.2-0.4-0.3-0.3-0.5c0.1-0.2,0.1-0.3-0.1-0.3
		c-0.2-0.1-0.2,0.1-0.3,0.2c0,0.1-0.1,0.2-0.2,0.2c-0.2,0.1-0.3,0.1-0.4,0.4c-0.1,0.3,0,0.3,0.1,0.5c0.1,0.3,0.1,0.3,0.4,0.1
		c0.1-0.1,0.1-0.1,0.2-0.1c0.2,0.1,0.3-0.1,0.3-0.2l0,0c0.1,0,0.2,0,0.3,0.1C58.9,87.2,59.1,87.1,59.3,87.2z M48,81.4
		c0.1,0.3,0.5,0.1,0.6,0.2c0.3,0.5,0.5,0.3,0.9,0.1c0.2-0.1,0.1-0.3,0.3-0.4c0.3-0.4,0.4-0.8,0.1-1.3c-0.2-0.4-0.6-0.6-1.1-0.5
		c-0.3,0.1-0.5,0-0.7-0.1c-0.3-0.2-0.1-0.4,0-0.7c0.1-0.4-0.1-0.8-0.5-1c-0.7-0.2-1.3,0-1.8,0.4c-0.2,0.2-0.4,0.5-0.7,0.7
		c-0.3,0.2-0.2,0.7,0.1,0.9c0.6,0.4,1.1,0.4,1.7,0.1c0.3-0.1,0.5,0,0.7,0c0.2,0.1,0.1,0.3,0.1,0.5C47.7,80.8,47.8,81.1,48,81.4z
		 M43.3,75.3c0.3,0.1,0.4,0,0.4-0.3c0-0.2-0.1-0.4-0.1-0.6c0-0.1-0.1-0.2-0.2-0.2c-0.2,0.1-0.4-0.1-0.6-0.1c-0.2,0-0.4,0-0.4,0.2
		c0,0.2-0.2,0.5,0,0.8c0,0,0.1,0.1,0.1,0.1C42.8,75.2,43,75.4,43.3,75.3z M60.3,88c0-0.1-0.1-0.2-0.1-0.1c-0.1,0-0.2,0.1-0.2,0.2
		c0,0.1,0.1,0.2,0.1,0.1C60.2,88.2,60.3,88.1,60.3,88z"/>
	<path class="st3" d="M40.5,58.7c0.3,0.2,0.3,0.6,0.1,0.9c-0.1,0.2,0,0.3,0.1,0.4c0.3,0.4,0.7,0.8,0.6,1.5c0,0.2,0.1,0.3,0.2,0.3
		c0.4,0.2,0.7,0.5,0.6,0.9c0,0.3,0.2,0.4,0.3,0.5c0.3,0.1,0.4,0.3,0.4,0.6c0,0.2,0,0.5,0.2,0.7c0.1,0.1,0.1,0.2,0,0.3
		c-0.2,0.2-0.4,0.4-0.4,0.7c0,0.1-0.1,0.1-0.2,0.1c-0.2,0-0.3,0-0.3,0.3c0.1,0.2,0.1,0.4-0.1,0.5c0,0,0,0,0,0.1
		c-0.2,0.3,0.4,0.4,0.2,0.6c-0.2,0.3,0,0.4,0.2,0.5c0.2,0.1,0.3,0.3,0.2,0.5c-0.1,0.1-0.2,0.3-0.4,0.2c-0.2-0.1-0.3,0.1-0.3,0.3
		c0,0.2,0,0.5-0.2,0.6c0,0,0,0,0,0c0,0,0,0,0,0c0,0.2-0.1,0.4-0.2,0.6c-0.3,0.4-0.2,0.9-0.1,1.3c0.1,0.4,0.3,0.7,0.1,1.1
		c-0.1,0.1-0.1,0.3,0,0.4c0.2,0.3,0.3,0.7,0.4,1.1c0.1,0.2,0.2,0.5,0.2,0.6c-0.2,0.3-0.3,0.7-0.4,1.1c-0.2,0.6-0.1,0.8,0.6,0.8
		c0.3,0,0.2,0.1,0.2,0.2c-0.1,0.4,0,0.7,0.2,1.1c0,0,0,0.1,0,0.1c-0.1,0.1,0,0.1,0.1,0.2c0,0,0.1,0.1,0.1,0.1
		c-0.1,0.5,0,0.6,0.5,0.9c0,0,0,0,0,0c0,0.2,0,0.3,0.1,0.5c0.1,0.4,0.4,0.8,0.4,1.1c0,0.7,0.3,1.3,0.5,1.9c0.2,0.7,0.7,1.1,1.2,1.6
		c0,0.1,0.1,0.1,0.1,0.2c0.2,0.3,0.4,0.5,0.7,0.7c0.2,0.2,0.5,0.4,0.9,0.3c0.3-0.1,0.8,0,1.1,0.3c0.4,0.4,0.7,0.7,1.2,1
		c0.1,0.1,0.2,0.1,0.3,0.2c0,0,0,0,0,0c0,0,0,0,0,0.1c0.1,0.2,0.3,0.2,0.5,0.2c0,0,0,0,0,0c0.2,0.2,0.4,0.1,0.7,0.2
		c0.5,0.1,1,0.3,1.5,0.3c0.2,0,0.4,0.3,0.6,0.4c0.1,0,0.1,0.1,0,0.2c-0.1,0.1-0.1,0-0.2,0c-0.5-0.4-1.1-0.4-1.6-0.4
		c-0.8-0.1-1.6-0.6-2.3-0.9c-0.1,0-0.2-0.1-0.2-0.2c-0.2-0.4-0.6-0.6-1-0.7c-0.3-0.1-0.5,0-0.6,0.2c-0.4,0.7-0.9,1.5-1.3,2.2
		c-0.1,0.1-0.1,0.2-0.3,0.2c-0.6-0.1-1.2-0.3-1.7-0.7c-0.2-0.2-0.2-0.5-0.3-0.7c-0.2-0.4-0.3-0.9-0.7-1.2c-0.3-0.4-0.7-0.8-1.1-1.1
		c-0.1,0-0.1-0.1-0.1-0.2c-0.3-0.9-1-1.5-1.9-1.8c-0.1,0-0.2,0-0.2-0.1c-0.1-0.4-0.5-0.6-0.7-1c0-0.1-0.2-0.2-0.2-0.2
		c-0.7-0.1-0.9-0.7-1.4-1c-0.2-0.2-0.4-0.4-0.7-0.5c-0.2,0-0.3-0.1-0.3-0.4c0-0.5-0.2-0.8-0.7-1.1c-0.6-0.4-1.1-0.9-1.8-1.2
		c-0.7-0.3-1.2-0.8-1.5-1.5c-0.2-0.4-0.5-0.7-0.9-0.9c-0.6-0.3-0.9-0.9-1.4-1.3c-0.5-0.4-0.7-0.9-1-1.4c-0.2-0.5-0.6-1-1.1-1.3
		c-0.1-0.1-0.2-0.1-0.1-0.4c0.1-0.3-0.1-0.4-0.2-0.6c-0.1-0.1-0.2-0.3-0.3-0.4c-0.6-0.5-0.8-1.3-1.4-1.9c-0.1-0.1-0.1-0.2-0.1-0.4
		c-0.1-1-0.7-1.9-1-2.8c-0.1-0.2-0.2-0.6-0.6-0.4c0,0-0.2-0.1-0.2-0.1c-1.2-0.8-2.4-1.6-3.6-2.3c-0.2-0.1-0.4-0.4-0.5-0.6
		c-0.4-0.5-1.1-0.7-1.5-1.1c-0.2-0.2-0.4-0.4-0.6-0.7c0.2,0,0.4,0.1,0.5,0.2c0.1,0,0.2,0,0.2-0.1c0-0.1,0-0.2,0-0.2
		c-0.4-0.1-0.5-0.5-0.9-0.5c0,0,0,0,0,0c-0.1-0.2-0.3-0.3-0.5-0.3l0,0c-0.2-0.5-0.6-0.7-1-0.9c-0.6-0.4-1.2-0.8-1.7-1.2
		c-0.3-0.3-0.4-0.6-0.2-0.9c0-0.1,0.1-0.2,0-0.2c-0.1-0.1-0.2-0.1-0.2,0c0,0,0,0,0,0c0,0,0,0,0,0c0,0,0,0,0,0c-0.2,0-0.4,0-0.5-0.2
		c-0.1-0.1-0.2-0.3-0.4,0c-0.1,0.1-0.1,0-0.1,0c-0.5-0.7-1.2-1.3-1.4-2.3c0-0.1,0-0.2-0.1-0.2c-0.3,0-0.5-0.4-0.7-0.5
		c-0.2-0.1-0.3-0.2-0.3-0.5c0-0.3-0.2-0.3-0.3-0.1c-0.2,0.1-0.4,0.4-0.5,0.4c-0.3-0.1-0.5-0.2-0.8-0.4c-0.5-0.4-1-0.7-1.5-1.1
		c-0.3-0.2-0.4-0.7-0.3-1.1c0.2-0.6,0.6-1,1.2-1.4c0.4-0.3,0.7-0.7,0.7-1.3c0-0.2,0-0.3,0.2-0.3c0.2,0,0.2,0.2,0.2,0.3
		c0,0.4,0.2,0.6,0.5,0.8c0.4,0.2,0.7,0.4,1,0.7c0.2,0.3,0.4,0.5,0.4,0.9c0,0.4,0.1,0.6,0.5,0.7c0.2,0.1,0.5,0.2,0.7,0.1
		c0.2,0,0.2,0.1,0.2,0.2c0,0,0,0,0,0c-0.2,0-0.2,0.1-0.1,0.2c0.1,0.2,0.3,0.3,0.5,0.2c0.2,0,0.3-0.1,0.5-0.1c0,0,0,0,0,0
		c0,0.2,0.1,0.2,0.2,0.1c0.1-0.1,0.2-0.2,0.1-0.3l0,0c0.1,0.1,0.1,0,0.1-0.1c0-0.1-0.1-0.2-0.2-0.2c-0.2,0-0.4,0.1-0.6,0
		c0.6-0.7,1.2-1.2,2.2-1.1c0.5,0,0.9,0,1.4-0.1c0.8-0.1,1.6,0,2.4,0.3c0.2,0.1,0.3,0,0.4-0.1c0.6-0.4,1.3-0.8,1.9-1.1
		c0.2-0.1,0.3-0.2,0.3-0.4c0-0.3,0.2-0.5,0.2-0.8c0-0.2,0-0.5,0.4-0.5c0.1,0,0.2-0.2,0.1-0.3c-0.3-0.3,0-0.8-0.3-1.1
		c-0.1-0.1,0-0.2,0.1-0.3c0.2-0.2,0.3-0.4,0.3-0.6c-0.1-0.4,0-0.6,0.3-0.9c0.3-0.3,0.5-0.7,0.8-0.9c0.3-0.3,0.8-0.4,1.2-0.1
		c0.2,0.3,0.4,0.5,0.7,0.6c0.3,0.1,0.6,0.1,0.9-0.1c0.2-0.2,0.2-0.1,0.3,0.1c0.1,0.1,0.1,0.3,0.2,0.4c0.1,0.1,0.1,0.3,0,0.4
		c-0.4,0.6-0.4,1.3-0.7,1.9c-0.1,0.2,0,0.5,0.2,0.6c0.3,0.1,0.5,0.6,0.9,0.2c0.2-0.2,0.6-0.2,0.9-0.2c0,0,0.1,0,0.1,0
		c0.2,0.4,0.6,0.2,0.9,0.1c0.5-0.1,1.1-0.1,1.6-0.3c0.1-0.1,1,0.6,1,0.8c-0.2,0.8,0.4,1.3,0.6,2c0.1,0.3-0.1,0.5-0.2,0.6
		c-0.5,0.7-0.2,1,0.4,1.5c0.1,0.1,0.2,0.1,0.2,0.1c0.2,0.4,0.5,0.5,0.9,0.5c0.4,0,0.8,0.1,1.1,0.1c0.3,0,0.4,0.2,0.4,0.4
		c0,0.6-0.2,1.2-0.3,1.8c0,0.2-0.1,0.3-0.1,0.5c0.1,0.6-0.1,1.2-0.2,1.7c-0.1,0.2,0,0.5,0.3,0.4c0.4-0.1,0.7,0.1,1,0.2
		c0.6,0.2,1.1,0.6,1.8,0.4c0.2-0.1,0.5,0.1,0.6,0.3c0.2,0.4,0.5,0.5,0.9,0.6c0.2,0,0.3,0.1,0.4,0.2c0.1,0.2,0.3,0.3,0.6,0.2
		c0.2,0,0.3,0.1,0.3,0.3C40.1,58.1,40.3,58.4,40.5,58.7z M28.2,61.4c0.1,0.1,0.2,0.2,0.3,0.3c0.3,0.3,0.6,0.6,0.9,0.8
		c1,0.4,2,0.6,2.9-0.1c0.4-0.3,0.7-0.2,0.8,0.3c0.1,0.2,0,0.4-0.2,0.6c-0.2,0.2-0.2,0.3,0.1,0.4c0.4,0.1,0.8,0.2,1.2,0.1
		c0.6-0.1,1.2-0.3,1.8-0.2c0.6,0.1,0.8-0.1,1-0.6c0.2-0.5,0.1-1,0.1-1.5c0-0.2-0.2-0.4-0.4-0.5c-0.1,0-0.3-0.1-0.3,0.1
		c-0.1,0-0.1,0-0.2,0c0,0.1-0.1,0.1-0.1,0.2c-0.1,0.2-0.2,0.3-0.4,0.3c-0.2-0.1-0.2-0.3-0.2-0.5c0-0.7-0.4-1.3-0.7-2
		c0-0.1-0.1-0.3-0.1-0.4c0.1-0.1,0-0.2,0-0.3c0.1-0.2,0.1-0.3-0.1-0.4c-0.2-0.1-0.3-0.1-0.5,0.1c-0.2,0.2-0.6,0-0.8,0.2
		c-0.3-0.4-0.4,0-0.6,0.1c-0.1,0.1-0.2,0.2-0.3,0.2c-0.3,0-0.5,0.2-0.6,0.5c-0.1,0.1-0.1,0.2-0.3,0.1c-0.2-0.2-0.4,0-0.6,0.1
		c-0.4,0.2-0.6,0.6-0.7,1c-0.1,0.2-0.2,0.2-0.4,0.2c-0.5-0.1-0.9-0.2-1.2-0.5c-0.2-0.2-0.5-0.1-0.6,0.2
		C27.8,60.7,27.8,61.1,28.2,61.4z"/>
	<path class="st0" d="M88.6,58c0,0.2,0.1,0.3,0.2,0.4c0.1,0.2,0.2,0.5,0.2,0.7c0,0.8-0.3,0.9-0.9,0.8c-0.4-0.1-0.8,0.1-1.1,0.3
		c-0.1,0.1-0.2,0.2-0.3,0.1c-0.1-0.1-0.2-0.2-0.2-0.3c0-0.2,0-0.3,0-0.5c0.1-0.4,0-0.8-0.3-1.1c-0.2-0.3-0.4-0.6-0.1-1
		c0.1-0.1,0-0.3,0-0.4c0-0.3,0.1-0.6,0.5-0.6c0.1,0,0.3,0,0.4,0c0.3,0,0.5-0.2,0.4-0.4c-0.1-0.7,0-1.4,0-2.1c0-0.2-0.1-0.5,0-0.7
		c0.1-0.2,0.2-0.4,0.4-0.3c0.2,0.1,0.1,0.2,0.1,0.4c-0.3,1.5-0.3,3.1,0.5,4.5C88.4,57.8,88.4,58,88.6,58C88.6,58,88.6,58,88.6,58z"
		/>
	<path class="st2" d="M36.2,61.2c0.1,0,0.1,0,0.2,0c0.3,0,0.6,0.1,0.6,0.4c0,0.5,0.1,1-0.1,1.5c-0.1,0.2-0.3,0.6-0.6,0.5
		c-0.7-0.2-1.4,0-2.2,0.1c-0.4,0.1-0.8-0.1-1.2-0.2c0.1-0.1,0.2-0.2,0.3-0.3c0.2-0.2,0.1-0.8-0.2-1c-0.2-0.3-0.5-0.2-0.7,0
		c-0.3,0.2-0.6,0.4-0.9,0.5c-0.9,0.2-1.7-0.1-2.5-0.7c-0.1-0.1-0.2-0.3-0.5-0.3c-0.1-0.1-0.2-0.2-0.3-0.3c0-0.2-0.1-0.4-0.1-0.5
		c0-0.2-0.1-0.5,0.1-0.6c0.1-0.1,0.3-0.1,0.4,0c0.3,0.3,0.8,0.3,1.1,0.4c0.3,0.1,0.5,0,0.6-0.3c0.1-0.3,0.3-0.5,0.5-0.8
		c0.2-0.2,0.4-0.5,0.8-0.3c0.1,0,0.3,0.1,0.4-0.1c0.1-0.3,0.3-0.5,0.7-0.6c0.2-0.1,0.4-0.5,0.7-0.2c0.2-0.3,0.6,0,0.9-0.3
		c0.1-0.1,0.4-0.2,0.4,0.2c0,0.1-0.1,0.2,0.1,0.3c0,0.2,0,0.3,0.1,0.4c0,0,0,0,0,0.1c0.2,0.7,0.7,1.3,0.6,2.1c0,0.2,0.2,0.4,0.4,0.4
		c0.2,0,0.4,0,0.4-0.3C36.1,61.4,36.2,61.3,36.2,61.2z"/>
	<path class="st3" d="M49.7,81.3c-0.2,0.2-0.4,0.2-0.6,0.4c-0.1,0.1-0.2,0.1-0.3,0c-0.2-0.4-0.5-0.4-0.8-0.5c0-0.3-0.3-0.6-0.1-1
		c0.1-0.3-0.3-0.6-0.8-0.5c-0.1,0-0.3,0-0.4,0.1c-0.5,0.2-1,0.1-1.5-0.1C45,79.6,45,79.2,45.3,79c0.3-0.2,0.4-0.4,0.6-0.7
		c0.5-0.3,1.1-0.5,1.6-0.4c0.4,0.1,0.6,0.4,0.4,0.9c-0.2,0.6-0.1,0.7,0.4,0.9c0.1,0,0.2,0.1,0.3,0c0.4-0.1,0.7-0.1,1,0.2
		c0.3,0.3,0.5,0.7,0.2,1.1C49.8,81.2,49.7,81.2,49.7,81.3z"/>
	<path class="st1" d="M58.4,87C58.2,87,58,87,57.7,87l0,0c0-0.2,0.2-0.3-0.1-0.5c-0.1,0,0-0.2,0.1-0.2c0.2,0,0.3-0.1,0.4-0.2
		c0.1,0.2,0.1,0.5,0.4,0.6C58.5,86.8,58.3,86.7,58.4,87C58.4,87,58.4,87,58.4,87z"/>
	<path class="st1" d="M59.6,87.5c0-0.1-0.1-0.3-0.3-0.3C59.2,87,59,87.1,58.8,87c0.2-0.2,0.5-0.3,0.8-0.1c0.1,0,0.1,0.2,0.2,0.1
		c0,0.2,0,0.4,0,0.5C59.7,87.6,59.7,87.5,59.6,87.5z"/>
	<path class="st3" d="M43.3,75.2c-0.1,0-0.2,0-0.2,0c-0.3-0.1-0.6-0.4-0.4-0.7c0.1-0.2,0.3-0.1,0.4-0.1c0.1,0,0.1,0.1,0.2,0.1
		c0.1,0,0.2-0.2,0.3,0c0.1,0.1-0.1,0.1-0.2,0.2c-0.1,0.1,0,0.1,0.1,0.1c0.1,0,0.2,0.1,0.2,0.3C43.6,75.3,43.4,75.2,43.3,75.2z"/>
</g>
</svg>
