<svg xmlns="http://www.w3.org/2000/svg" viewBox="0 0 600 480" width="600" height="480">
  <defs>
    <filter id="shadow-combo" x="-10%" y="-10%" width="120%" height="120%">
      <feDropShadow dx="1" dy="2" stdDeviation="4" flood-color="rgba(0,0,0,0.35)"/>
    </filter>
  </defs>
  <!-- Región Pacífico - Naranja -->
  <path fill="#F5A623" stroke="#D48A10" stroke-width="1" stroke-linejoin="round"
        d="M 32,225 L 75,220 L 113,206
           L 148,225 L 200,270 L 238,320 L 280,360 L 312,365 L 315,385 L 315,415 L 312,428
           L 260,399 L 245,397 L 224,372 L 207,343 L 148,323 L 125,274 L 102,260 Z"/>
  <!-- Región Central - Verde -->
  <path fill="#5DBE4A" stroke="#3A9E2A" stroke-width="1" stroke-linejoin="round"
        d="M 113,206 L 166,179 L 175,162 L 216,134 L 288,128
           L 335,177 L 370,225 L 405,274 L 405,323 L 382,372 L 370,428
           L 312,428 L 315,415 L 315,385 L 312,365 L 280,360 L 238,320 L 200,270 L 148,225 Z"/>
  <!-- Región Caribe - Azul -->
  <path fill="#3B7EC8" stroke="#2564A8" stroke-width="1" stroke-linejoin="round"
        d="M 288,128 L 306,64 L 440,89 L 510,98 L 569,33
           L 545,128 L 524,196 L 504,274 L 490,323 L 487,372 L 496,428
           L 405,428 L 370,428 L 382,372 L 405,323 L 405,274 L 370,225 L 335,177 Z"/>
</svg>
